#N canvas 915 26 358 430 10;
#N canvas 0 22 450 300 mel2hz 0;
#X obj 206 93 / 700;
#X obj 206 112 + 1;
#X obj 206 131 log;
#X obj 206 150 * 1127.01;
#X obj 206 74 inlet;
#X obj 206 188 outlet;
#X obj 206 169 int;
#X connect 0 0 1 0;
#X connect 1 0 2 0;
#X connect 2 0 3 0;
#X connect 3 0 6 0;
#X connect 4 0 0 0;
#X connect 6 0 5 0;
#X restore 250 13 pd mel2hz;
#N canvas 0 22 450 300 (subpatch) 0;
#X array crossover 128 float 5;
#A 0 0 0 0 0 0 0 0 0 0 0 0 0 0 0 0 0 0 0 0 0 0 0 0 0 0 0 0 0 0 0 0
0 0 0 0 0 0 0 0 0 0 0 0 0 0 0 0 0 0 0 0 0 0 0 0 0 0 0 0 0 0 0 0 0 0
0 0 0 0 0 0 0 0 0 0 0 0 0 0 0 0 0 0 0 0 0 0 0 0 0 0 0 0 0 0 0 0 0 0
0 0 0 0 0 0 0 0 0 0 0 0 0 0 0 0 0 0 0 0 0 0 0 0 0 0 0 0 0;
#X coords 0 1 127 -0.01 256 60 1 0 0;
#X restore 30 327 graph;
#N canvas 35 66 592 433 Hann-window 0;
#N canvas 0 22 450 300 (subpatch) 0;
#X array \$0-hann 512 float 0;
#X coords 0 1 511 0 200 120 1;
#X restore 293 249 graph;
#X msg 171 263 0;
#X obj 65 312 osc~;
#X obj 65 264 samplerate~;
#X obj 65 335 *~ -0.5;
#X obj 65 358 +~ 0.5;
#X obj 57 383 tabwrite~ \$0-hann;
#X text 279 241 1;
#X text 272 359 0;
#X text 288 372 0;
#X obj 57 241 bng 15 250 50 0 empty empty empty 0 -6 0 8 -262144 -1
-1;
#X text 336 221 Hann window;
#X text 113 310 period 512;
#X text 90 215 recalculate Hann;
#X text 125 230 window table;
#X obj 57 146 loadbang;
#X msg 79 179 \; pd dsp 1;
#X text 40 27 The Hann window is now recomputed on 'loadbang' to make
the file smaller (it doesn't have to be saved with the array.);
#X text 474 375 512;
#X obj 65 288 / 512;
#X connect 1 0 2 1;
#X connect 2 0 4 0;
#X connect 3 0 19 0;
#X connect 4 0 5 0;
#X connect 5 0 6 0;
#X connect 10 0 3 0;
#X connect 10 0 1 0;
#X connect 10 0 6 0;
#X connect 15 0 10 0;
#X connect 15 0 16 0;
#X connect 19 0 2 0;
#X restore 155 121 pd Hann-window;
#N canvas 35 66 592 433 Hann-window2 0;
#N canvas 0 22 450 300 (subpatch) 0;
#X array \$0-hann2 4096 float 0;
#X coords 0 1 4095 0 200 120 1 0 0;
#X restore 293 249 graph;
#X msg 171 263 0;
#X obj 65 312 osc~;
#X obj 65 264 samplerate~;
#X obj 65 335 *~ -0.5;
#X obj 65 358 +~ 0.5;
#X text 279 241 1;
#X text 272 359 0;
#X text 288 372 0;
#X obj 57 241 bng 15 250 50 0 empty empty empty 0 -6 0 8 -262144 -1
-1;
#X text 336 221 Hann window;
#X text 113 310 period 512;
#X text 90 215 recalculate Hann;
#X text 125 230 window table;
#X obj 57 146 loadbang;
#X msg 79 179 \; pd dsp 1;
#X text 40 27 The Hann window is now recomputed on 'loadbang' to make
the file smaller (it doesn't have to be saved with the array.);
#X obj 57 383 tabwrite~ \$0-hann2;
#X obj 65 288 / 4096;
#X connect 1 0 2 1;
#X connect 2 0 4 0;
#X connect 3 0 18 0;
#X connect 4 0 5 0;
#X connect 5 0 17 0;
#X connect 9 0 3 0;
#X connect 9 0 1 0;
#X connect 9 0 17 0;
#X connect 14 0 9 0;
#X connect 14 0 15 0;
#X connect 18 0 2 0;
#X restore 155 102 pd Hann-window2;
#N canvas 257 201 647 301 crossover 0;
#N canvas 265 48 643 640 fft-analysis 0;
#X text 85 88 The inlet~ now re-uses 3/4 of the previous block \, along
with the 128 new samples.;
#X text 221 141 window function as before.;
#X obj 16 506 *~;
#X text 98 301 divide by 3N/2 (factor of N because rfft and rifft aren't
normalized \, and 3/2 is the gain of overlap-4 reconstruction when
Hann window function is applied twice.);
#X text 120 216 Just to show we're doing something \, we multiply each
channel by a gain controlled by an array in the main window. The control
is quartic-scaled for easy editing.;
#X text 92 357 Multiply the (complex-valued) spectrum amplitudes by
the (real-valued) gain-and-normalization-factor;
#X obj 15 399 rifft~;
#X text 89 396 Real-valued inverse Fourier transform. This uses only
the first N/@ points of its inputs \, supplying the rest by symmerty
(so it's OK that rfft~ obly puts out those N/2 points.) There's only
one outlet because the output is real-valued.;
#X obj 16 566 outlet~;
#X text 88 499 Multiply by the Hann window function again \, necessary
because the operation we performed might result in a signal that doesn't
go smoothly to zero at both ends.;
#X text 89 566 This repackages the output into 64-sample chunks for
the parent window. Since we're operating with an overlap \, the outlet~
object performs an overlapped sum of the blocks computed in this window.
;
#X text 129 8 block~ object specifies vector size of 512 and overlap
four. This window now computes blocks of 512 samples at intervals of
128 samples computed on the parent patch.;
#X obj 77 197 tabreceive~ crossover;
#X obj 37 481 tabreceive~ \$0-hann2;
#X obj 15 8 block~ 4096 4;
#X connect 2 0 8 0;
#X connect 6 0 2 0;
#X connect 12 0 6 0;
#X connect 12 0 6 1;
#X connect 13 0 2 1;
#X restore 221 56 pd fft-analysis crossover;
#X obj 221 75 *~;
#X obj 222 242 freeverb~;
#X msg 121 225 dry 1;
#X obj 39 208 loadbang;
#X obj 222 223 *~;
#X obj 273 223 *~;
#X obj 221 106 *~;
#X obj 251 89 line~;
#X obj 529 15 r resetspectrum;
#X obj 529 34 t b b;
#X msg 529 72 1 200;
#X msg 571 53 0 10;
#X obj 529 53 del 10;
#X obj 221 125 hip~ 40;
#X obj 305 124 line~ f 40;
#X obj 305 105 r panorama-bangs;
#X obj 305 193 *~ 0.001;
#X obj 237 174 abs~;
#X obj 237 193 *~ 0.001;
#X obj 237 155 -~ 1000;
#X msg 39 225 roomsize 0.9;
#X obj 377 58 r crossover-vol;
#X msg 160 225 wet 0.9;
#X obj 222 261 throw~ L;
#X obj 272 261 throw~ R;
#X connect 0 0 1 0;
#X connect 1 0 7 0;
#X connect 2 0 24 0;
#X connect 2 1 25 0;
#X connect 3 0 2 0;
#X connect 4 0 3 0;
#X connect 4 0 21 0;
#X connect 4 0 23 0;
#X connect 5 0 2 0;
#X connect 6 0 2 1;
#X connect 7 0 14 0;
#X connect 8 0 7 1;
#X connect 9 0 10 0;
#X connect 10 0 13 0;
#X connect 10 1 12 0;
#X connect 11 0 8 0;
#X connect 12 0 8 0;
#X connect 13 0 11 0;
#X connect 14 0 6 0;
#X connect 14 0 5 0;
#X connect 15 0 17 0;
#X connect 15 0 20 0;
#X connect 16 0 15 0;
#X connect 17 0 6 1;
#X connect 18 0 19 0;
#X connect 19 0 5 1;
#X connect 20 0 18 0;
#X connect 21 0 2 0;
#X connect 22 0 1 1;
#X connect 23 0 2 0;
#X restore 155 140 pd crossover 2 sound;
#N canvas 0 22 637 366 percussion 0;
#N canvas 265 48 643 640 fft-analysis 0;
#X obj 15 164 *~;
#X obj 14 99 inlet~;
#X obj 15 218 rfft~;
#X obj 36 140 tabreceive~ \$0-hann;
#X obj 14 353 *~;
#X obj 56 353 *~;
#X text 85 88 The inlet~ now re-uses 3/4 of the previous block \, along
with the 128 new samples.;
#X text 221 141 window function as before.;
#X obj 77 225 *~;
#X obj 16 506 *~;
#X obj 37 481 tabreceive~ \$0-hann;
#X text 98 301 divide by 3N/2 (factor of N because rfft and rifft aren't
normalized \, and 3/2 is the gain of overlap-4 reconstruction when
Hann window function is applied twice.);
#X text 120 216 Just to show we're doing something \, we multiply each
channel by a gain controlled by an array in the main window. The control
is quartic-scaled for easy editing.;
#X obj 78 251 *~;
#X text 92 357 Multiply the (complex-valued) spectrum amplitudes by
the (real-valued) gain-and-normalization-factor;
#X obj 15 399 rifft~;
#X text 89 396 Real-valued inverse Fourier transform. This uses only
the first N/@ points of its inputs \, supplying the rest by symmerty
(so it's OK that rfft~ obly puts out those N/2 points.) There's only
one outlet because the output is real-valued.;
#X obj 16 566 outlet~;
#X text 88 499 Multiply by the Hann window function again \, necessary
because the operation we performed might result in a signal that doesn't
go smoothly to zero at both ends.;
#X text 89 566 This repackages the output into 64-sample chunks for
the parent window. Since we're operating with an overlap \, the outlet~
object performs an overlapped sum of the blocks computed in this window.
;
#X text 129 8 block~ object specifies vector size of 512 and overlap
four. This window now computes blocks of 512 samples at intervals of
128 samples computed on the parent patch.;
#X obj 77 197 tabreceive~ salida;
#X obj 77 283 /~ 234;
#X obj 15 8 block~ 512 4;
#X connect 0 0 2 0;
#X connect 1 0 0 0;
#X connect 2 0 4 0;
#X connect 2 1 5 0;
#X connect 3 0 0 1;
#X connect 4 0 15 0;
#X connect 5 0 15 1;
#X connect 8 0 13 0;
#X connect 8 0 13 1;
#X connect 9 0 17 0;
#X connect 10 0 9 1;
#X connect 13 0 22 0;
#X connect 15 0 9 0;
#X connect 21 0 8 0;
#X connect 21 0 8 1;
#X connect 22 0 4 1;
#X connect 22 0 5 1;
#X restore 121 48 pd fft-analysis;
#X obj 121 29 noise~;
#X obj 121 174 *~;
#X obj 136 133 bng 15 250 50 0 empty empty empty 17 7 0 10 -262144
-1 -1;
#X obj 136 92 r bang-salida;
#N canvas 265 48 643 640 fft-analysis 0;
#X obj 15 164 *~;
#X obj 14 99 inlet~;
#X obj 15 218 rfft~;
#X obj 36 140 tabreceive~ \$0-hann;
#X obj 14 353 *~;
#X obj 56 353 *~;
#X text 85 88 The inlet~ now re-uses 3/4 of the previous block \, along
with the 128 new samples.;
#X text 221 141 window function as before.;
#X obj 77 225 *~;
#X obj 16 506 *~;
#X obj 37 481 tabreceive~ \$0-hann;
#X text 98 301 divide by 3N/2 (factor of N because rfft and rifft aren't
normalized \, and 3/2 is the gain of overlap-4 reconstruction when
Hann window function is applied twice.);
#X text 120 216 Just to show we're doing something \, we multiply each
channel by a gain controlled by an array in the main window. The control
is quartic-scaled for easy editing.;
#X obj 78 251 *~;
#X text 92 357 Multiply the (complex-valued) spectrum amplitudes by
the (real-valued) gain-and-normalization-factor;
#X obj 15 399 rifft~;
#X text 89 396 Real-valued inverse Fourier transform. This uses only
the first N/@ points of its inputs \, supplying the rest by symmerty
(so it's OK that rfft~ obly puts out those N/2 points.) There's only
one outlet because the output is real-valued.;
#X obj 16 566 outlet~;
#X text 88 499 Multiply by the Hann window function again \, necessary
because the operation we performed might result in a signal that doesn't
go smoothly to zero at both ends.;
#X text 89 566 This repackages the output into 64-sample chunks for
the parent window. Since we're operating with an overlap \, the outlet~
object performs an overlapped sum of the blocks computed in this window.
;
#X text 129 8 block~ object specifies vector size of 512 and overlap
four. This window now computes blocks of 512 samples at intervals of
128 samples computed on the parent patch.;
#X obj 77 283 /~ 234;
#X obj 77 197 tabreceive~ llegada;
#X obj 15 8 block~ 512 4;
#X connect 0 0 2 0;
#X connect 1 0 0 0;
#X connect 2 0 4 0;
#X connect 2 1 5 0;
#X connect 3 0 0 1;
#X connect 4 0 15 0;
#X connect 5 0 15 1;
#X connect 8 0 13 0;
#X connect 8 0 13 1;
#X connect 9 0 17 0;
#X connect 10 0 9 1;
#X connect 13 0 21 0;
#X connect 15 0 9 0;
#X connect 21 0 4 1;
#X connect 21 0 5 1;
#X connect 22 0 8 0;
#X connect 22 0 8 1;
#X restore 458 56 pd fft-analysis;
#X obj 458 37 noise~;
#X obj 458 172 *~;
#X obj 473 95 r bang-llegada;
#X obj 226 259 freeverb~;
#X msg 226 177 dry 1;
#X obj 226 158 loadbang;
#X obj 205 130 r release;
#X obj 542 133 r release;
#X obj 136 154 ead~ 200 600;
#X obj 473 152 ead~ 200 600;
#X obj 170 111 r attack;
#X obj 507 114 r attack;
#X obj 122 192 lop~ 1000;
#X obj 458 191 lop~ 1000;
#X obj 308 244 *~;
#X obj 147 248 *~;
#X obj 121 67 *~ 1;
#X obj 458 75 *~ 1;
#X msg 316 209 wet 1;
#X msg 292 178 roomsize 0.4;
#X obj 374 302 r perc-vol;
#X obj 226 278 throw~ L;
#X obj 277 278 throw~ R;
#X obj 169 312 s~ percL;
#X obj 279 312 s~ percR;
#X connect 0 0 22 0;
#X connect 1 0 0 0;
#X connect 2 0 18 0;
#X connect 3 0 14 0;
#X connect 4 0 14 0;
#X connect 5 0 23 0;
#X connect 6 0 5 0;
#X connect 7 0 19 0;
#X connect 8 0 15 0;
#X connect 9 0 27 0;
#X connect 9 0 29 0;
#X connect 9 1 28 0;
#X connect 9 1 30 0;
#X connect 10 0 9 0;
#X connect 11 0 10 0;
#X connect 11 0 25 0;
#X connect 11 0 24 0;
#X connect 12 0 14 2;
#X connect 13 0 15 2;
#X connect 14 0 2 1;
#X connect 15 0 7 1;
#X connect 16 0 14 1;
#X connect 17 0 15 1;
#X connect 18 0 21 0;
#X connect 19 0 20 0;
#X connect 20 0 9 1;
#X connect 21 0 9 0;
#X connect 22 0 2 0;
#X connect 23 0 7 0;
#X connect 24 0 9 0;
#X connect 25 0 9 0;
#X connect 26 0 20 1;
#X connect 26 0 21 1;
#X restore 155 83 pd percussion;
#X obj 170 293 hsl 128 15 0.01 1 1 1 perc-vol empty vol -2 -8 0 10
-262144 -1 -1 9500 1;
#X obj 170 259 hsl 128 15 0.001 1 1 1 crossover-vol empty empty -2
-8 0 10 -262144 -1 -1 6300 1;
#N canvas 678 170 448 374 time 0;
#N canvas 0 22 508 436 salida 0;
#X obj 97 91 coll 20201121-histo.txt;
#C restore;
#N canvas 0 22 450 300 (subpatch) 0;
#X array salida 128 float 5;
#A 0 0 0 0 0 0 0 0 0 0 0 0 0 0 0 0 0 0 0 0 0 0 0 0 0 0 0 0 0 0 0 0
0 0 0 0 0 0 0 0 0 0 0 0 0 0 0 0 0 0 0 0 0 0 0 0 0 0 0 0 0 0 0 0 0 0
0 0 0 0 0 0 0 0 0 0 0 0 0 0 0 0 0 0 0 0 0 0 0 0 0 0 0 0 0 0 0 0 0 0
0 0 0 0 0 0 0 0 0 0 0 0 0 0 0 0 0 0 0 0 0 0 0 0 0 0 0 0 0;
#X coords 0 1 127 -0.01 256 60 1 0 0;
#X restore 33 358 graph;
#X msg 114 40 \; salida const 0;
#X obj 97 128 list split 1;
#X obj 97 166 list;
#X obj 97 147 t b f;
#X obj 124 272 tabwrite salida;
#X obj 124 234 tabread salida;
#X obj 124 215 t f f;
#X obj 124 253 + 1;
#X msg 80 291 \; salida normalize 1;
#X msg 63 3 326;
#X msg 97 72 \$1s;
#X obj 63 22 t b b f b;
#X obj 63 330 s bang-salida;
#N canvas 0 22 450 300 hz2mel 0;
#X obj 182 57 inlet;
#X obj 182 76 / 2595;
#X obj 182 95 t b f;
#X msg 185 128 10;
#X obj 194 162 pow;
#X obj 194 181 - 1;
#X obj 194 200 * 700;
#X obj 194 219 outlet;
#X connect 0 0 1 0;
#X connect 1 0 2 0;
#X connect 2 0 3 0;
#X connect 2 1 4 1;
#X connect 3 0 4 0;
#X connect 4 0 5 0;
#X connect 5 0 6 0;
#X connect 6 0 7 0;
#X restore 124 190 pd hz2mel;
#X obj 160 5 inlet;
#X obj 265 131 list length;
#X obj 265 150 s minute-interactions;
#X connect 0 0 3 0;
#X connect 0 0 17 0;
#X connect 3 0 5 0;
#X connect 3 1 4 1;
#X connect 4 0 3 0;
#X connect 5 0 4 0;
#X connect 5 1 15 0;
#X connect 7 0 9 0;
#X connect 8 0 7 0;
#X connect 8 1 6 1;
#X connect 9 0 6 0;
#X connect 11 0 13 0;
#X connect 12 0 0 0;
#X connect 13 0 14 0;
#X connect 13 1 10 0;
#X connect 13 2 12 0;
#X connect 13 3 2 0;
#X connect 15 0 8 0;
#X connect 16 0 13 0;
#X connect 17 0 18 0;
#X restore 85 333 pd salida;
#N canvas 0 22 473 465 llegada 0;
#X obj 122 120 coll 20201121-histo.txt;
#C restore;
#N canvas 0 22 450 300 (subpatch) 0;
#X array llegada 128 float 5;
#A 0 0 0 0 0 0 0 0 0 0 0 0 0 0 0 0 0 0 0 0 0 0 0 0 0 0 0 0 0 0 0 0
0 0 0 0 0 0 0 0 0 0 0 0 0 0 0 0 0 0 0 0 0 0 0 0 0 0 0 0 0 0 0 0 0 0
0 0 0 0 0 0 0 0 0 0 0 0 0 0 0 0 0 0 0 0 0 0 0 0 0 0 0 0 0 0 0 0 0 0
0 0 0 0 0 0 0 0 0 0 0 0 0 0 0 0 0 0 0 0 0 0 0 0 0 0 0 0 0;
#X coords 0 1 127 -0.01 256 60 1 0 0;
#X restore 73 355 graph;
#X obj 122 139 list split 1;
#X obj 122 177 list;
#X obj 122 158 t b f;
#X obj 149 226 t f f;
#X obj 149 264 + 1;
#X msg 103 53 326;
#X obj 103 72 t b b f b;
#N canvas 0 22 450 300 hz2mel 0;
#X obj 182 57 inlet;
#X obj 182 76 / 2595;
#X obj 182 95 t b f;
#X msg 185 128 10;
#X obj 194 162 pow;
#X obj 194 181 - 1;
#X obj 194 200 * 700;
#X obj 194 219 outlet;
#X connect 0 0 1 0;
#X connect 1 0 2 0;
#X connect 2 0 3 0;
#X connect 2 1 4 1;
#X connect 3 0 4 0;
#X connect 4 0 5 0;
#X connect 5 0 6 0;
#X connect 6 0 7 0;
#X restore 149 201 pd hz2mel;
#X obj 103 321 s bang-llegada;
#X msg 193 305 \; llegada normalize 1;
#X obj 149 283 tabwrite llegada;
#X obj 149 245 tabread llegada;
#X msg 181 74 \; llegada const 0;
#X msg 122 101 \$1l;
#X obj 211 34 inlet;
#X connect 0 0 2 0;
#X connect 2 0 4 0;
#X connect 2 1 3 1;
#X connect 3 0 2 0;
#X connect 4 0 3 0;
#X connect 4 1 9 0;
#X connect 5 0 13 0;
#X connect 5 1 12 1;
#X connect 6 0 12 0;
#X connect 7 0 8 0;
#X connect 8 0 10 0;
#X connect 8 1 11 0;
#X connect 8 2 15 0;
#X connect 8 3 14 0;
#X connect 9 0 5 0;
#X connect 13 0 6 0;
#X connect 15 0 0 0;
#X connect 16 0 8 0;
#X restore 102 314 pd llegada;
#X obj 85 151 metro;
#X obj 85 170 f;
#X obj 110 170 + 1;
#X obj 135 136 hsl 128 15 0 1000 0 0 empty empty empty -2 -8 0 10 -262144
-1 -1 6146 1;
#X obj 124 231 sel 1500;
#X obj 85 134 tgl 15 0 empty empty empty 17 7 0 10 -262144 -1 -1 0
1;
#X msg 104 111 0;
#X obj 102 295 pipe;
#X obj 123 276 / 2;
#X obj 85 192 + 296;
#X msg 100 76 0;
#X msg 124 79 \; crossover const 0;
#X obj 132 117 r speed;
#X obj 85 211 t f f f f;
#N canvas 0 22 450 300 compute-time 0;
#X obj 91 97 / 60;
#X obj 91 116 int;
#X obj 121 98 % 60;
#X obj 91 153 pack f f;
#X obj 91 78 t f f;
#X obj 91 59 inlet;
#X obj 91 172 s time24h;
#X connect 0 0 1 0;
#X connect 1 0 3 0;
#X connect 2 0 3 1;
#X connect 3 0 6 0;
#X connect 4 0 0 0;
#X connect 4 1 2 0;
#X connect 5 0 4 0;
#X restore 248 228 pd compute-time;
#X obj 85 21 inlet;
#X obj 85 41 t f b b;
#X obj 124 60 del 1000;
#X connect 2 0 3 0;
#X connect 3 0 4 0;
#X connect 3 0 11 0;
#X connect 4 0 3 1;
#X connect 5 0 2 1;
#X connect 5 0 10 0;
#X connect 6 0 8 0;
#X connect 6 0 12 0;
#X connect 6 0 13 0;
#X connect 7 0 2 0;
#X connect 8 0 7 0;
#X connect 9 0 1 0;
#X connect 10 0 9 1;
#X connect 11 0 15 0;
#X connect 12 0 3 1;
#X connect 14 0 5 0;
#X connect 15 0 0 0;
#X connect 15 1 9 0;
#X connect 15 2 6 0;
#X connect 15 3 16 0;
#X connect 17 0 18 0;
#X connect 18 0 7 0;
#X connect 18 1 12 0;
#X connect 18 2 19 0;
#X connect 19 0 13 0;
#X restore 155 63 pd time engine;
#X obj 155 21 tgl 40 0 empty empty empty 17 7 0 10 -262144 -1 -1 1
1;
#X obj 155 159 catch~ L;
#X obj 209 159 catch~ R;
#X obj 181 195 dac~;
#N canvas 648 98 484 188 GEM 0;
#X obj 97 39 gemhead;
#N canvas 0 22 547 274 gemwin 0;
#X obj 132 136 gemwin;
#X obj 67 89 outlet;
#X obj 67 10 inlet;
#X obj 67 41 route create;
#X msg 67 70 set destroy;
#X msg 142 68 set create;
#X msg 385 119 destroy \, reset;
#X msg 132 112 color 1 1 1 \, dimen 900 600 \, create \, 1;
#X connect 2 0 3 0;
#X connect 3 0 4 0;
#X connect 3 0 7 0;
#X connect 3 1 5 0;
#X connect 3 1 6 0;
#X connect 4 0 1 0;
#X connect 5 0 1 0;
#X connect 6 0 0 0;
#X connect 7 0 0 0;
#X restore 35 88 pd gemwin;
#X msg 35 69 destroy;
#X obj 97 96 translateXYZ;
#X obj 119 58 loadbang;
#X obj 37 33 inlet;
#N canvas 469 155 752 576 lisajous 0;
#X obj 76 20 inlet;
#X obj 207 195 rotateXYZ;
#X obj 266 337 scopeXYZ;
#X obj 282 281 loadbang;
#X obj 194 437 scopeXYZ;
#X obj 72 401 loadbang;
#X msg 124 420 draw line;
#X obj 207 409 alpha;
#X msg 72 420 width 6;
#X obj 34 282 loadbang;
#X msg 34 320 width 1;
#X obj 424 244 inlet~;
#N canvas 630 140 650 468 tristimulus 0;
#X obj 44 24 inlet~;
#X obj 14 417 outlet~;
#X obj 90 417 outlet~;
#X obj 358 408 outlet~;
#X obj 44 62 route 0 1 2 3 4 5 6 7 8 9;
#X msg 14 210 \$1;
#X msg 43 210 \$2;
#X obj 14 371 osc~;
#X msg 90 184 \$1;
#X msg 118 184 \$2;
#X obj 90 336 osc~;
#X obj 150 209 +;
#X msg 150 184 \$1;
#X msg 178 184 \$2;
#X msg 210 184 \$1;
#X msg 238 184 \$2;
#X msg 270 184 \$1;
#X msg 298 184 \$2;
#X obj 120 226 +;
#X obj 90 243 +;
#X obj 178 245 +;
#X obj 148 262 +;
#X obj 118 279 +;
#X msg 398 177 \$1;
#X msg 426 177 \$2;
#X obj 358 296 osc~;
#X obj 458 202 +;
#X msg 458 177 \$1;
#X msg 486 177 \$2;
#X msg 518 177 \$1;
#X msg 546 177 \$2;
#X msg 578 177 \$1;
#X msg 606 177 \$2;
#X obj 428 219 +;
#X obj 398 236 +;
#X obj 486 238 +;
#X obj 456 255 +;
#X obj 426 272 +;
#X msg 338 177 \$1;
#X msg 366 177 \$2;
#X obj 406 292 +;
#X obj 358 256 +;
#X obj 29 352 line~;
#X obj 118 355 line~;
#X obj 406 368 line~;
#X obj 14 398 *~;
#X obj 90 398 *~;
#X obj 14 272 line~;
#X obj 14 253 pack f 100;
#X obj 44 43 sigmund~ -hop 2048 -npeak 10 peaks;
#X obj 358 389 *~;
#X obj 118 298 * 5;
#X obj 29 333 pack f 10;
#X obj 118 336 pack f 10;
#X obj 406 349 pack f 10;
#X obj 118 317 clip 0 1;
#X obj 406 330 clip 0 1;
#X obj 29 313 clip 0 1;
#X obj 14 229 * 1;
#X obj 358 277 * 0.5;
#X obj 90 263 * 0.25;
#X obj 29 294 * 10;
#X obj 406 311 * 20;
#X obj 119 377 *~;
#X obj 55 387 *~;
#X obj 416 398 *~;
#X connect 0 0 49 0;
#X connect 4 0 5 0;
#X connect 4 0 6 0;
#X connect 4 1 8 0;
#X connect 4 1 9 0;
#X connect 4 2 12 0;
#X connect 4 2 13 0;
#X connect 4 3 14 0;
#X connect 4 3 15 0;
#X connect 4 4 16 0;
#X connect 4 4 17 0;
#X connect 4 5 39 0;
#X connect 4 5 38 0;
#X connect 4 6 24 0;
#X connect 4 6 23 0;
#X connect 4 7 28 0;
#X connect 4 7 27 0;
#X connect 4 8 30 0;
#X connect 4 8 29 0;
#X connect 4 9 32 0;
#X connect 4 9 31 0;
#X connect 5 0 58 0;
#X connect 6 0 61 0;
#X connect 7 0 45 0;
#X connect 8 0 19 0;
#X connect 9 0 22 0;
#X connect 10 0 46 0;
#X connect 11 0 18 1;
#X connect 12 0 18 0;
#X connect 13 0 21 0;
#X connect 14 0 11 0;
#X connect 15 0 20 0;
#X connect 16 0 11 1;
#X connect 17 0 20 1;
#X connect 18 0 19 1;
#X connect 19 0 60 0;
#X connect 20 0 21 1;
#X connect 21 0 22 1;
#X connect 22 0 51 0;
#X connect 23 0 34 0;
#X connect 24 0 37 0;
#X connect 25 0 50 0;
#X connect 26 0 33 1;
#X connect 27 0 33 0;
#X connect 28 0 36 0;
#X connect 29 0 26 0;
#X connect 30 0 35 0;
#X connect 31 0 26 1;
#X connect 32 0 35 1;
#X connect 33 0 34 1;
#X connect 34 0 41 1;
#X connect 35 0 36 1;
#X connect 36 0 37 1;
#X connect 37 0 40 1;
#X connect 38 0 41 0;
#X connect 39 0 40 0;
#X connect 40 0 62 0;
#X connect 41 0 59 0;
#X connect 42 0 64 0;
#X connect 42 0 64 1;
#X connect 43 0 63 0;
#X connect 43 0 63 1;
#X connect 44 0 65 0;
#X connect 44 0 65 1;
#X connect 45 0 1 0;
#X connect 46 0 2 0;
#X connect 47 0 7 0;
#X connect 48 0 47 0;
#X connect 49 0 4 0;
#X connect 50 0 3 0;
#X connect 51 0 55 0;
#X connect 52 0 42 0;
#X connect 53 0 43 0;
#X connect 54 0 44 0;
#X connect 55 0 53 0;
#X connect 56 0 54 0;
#X connect 57 0 52 0;
#X connect 58 0 48 0;
#X connect 59 0 25 0;
#X connect 60 0 10 0;
#X connect 61 0 57 0;
#X connect 62 0 56 0;
#X connect 63 0 46 1;
#X connect 64 0 45 1;
#X connect 65 0 50 1;
#X restore 424 273 pd tristimulus;
#X obj 240 103 loadbang;
#X msg 192 105 1;
#X obj 241 141 f;
#X obj 266 141 + 1;
#X obj 241 160 % 360;
#X obj 266 262 color 0 0.1 0;
#X obj 207 390 color 0 0.1 0 0.2;
#X msg 282 300 draw line;
#X msg 34 301 length 100;
#X obj 239 122 metro 10;
#X connect 0 0 1 0;
#X connect 1 0 18 0;
#X connect 1 0 19 0;
#X connect 3 0 20 0;
#X connect 5 0 6 0;
#X connect 5 0 8 0;
#X connect 6 0 4 0;
#X connect 7 0 4 0;
#X connect 8 0 4 0;
#X connect 9 0 21 0;
#X connect 9 0 10 0;
#X connect 10 0 2 0;
#X connect 11 0 12 0;
#X connect 12 0 2 1;
#X connect 12 0 4 1;
#X connect 12 1 2 2;
#X connect 12 1 4 2;
#X connect 12 2 2 3;
#X connect 12 2 4 3;
#X connect 13 0 22 0;
#X connect 14 0 22 0;
#X connect 15 0 16 0;
#X connect 15 0 17 0;
#X connect 16 0 15 1;
#X connect 17 0 1 3;
#X connect 18 0 2 0;
#X connect 19 0 7 0;
#X connect 20 0 2 0;
#X connect 21 0 2 0;
#X connect 21 0 4 0;
#X connect 22 0 15 0;
#X restore 97 120 pd lisajous;
#X obj 177 103 inlet~;
#X obj 297 49 gemhead;
#X obj 297 106 translateXYZ;
#X obj 319 68 loadbang;
#X obj 385 113 inlet~;
#X msg 120 77 -4;
#X msg 320 87 4;
#N canvas 469 155 752 576 lisajous 0;
#X obj 76 20 inlet;
#X obj 207 195 rotateXYZ;
#X obj 266 337 scopeXYZ;
#X obj 282 281 loadbang;
#X obj 194 437 scopeXYZ;
#X obj 72 401 loadbang;
#X msg 124 420 draw line;
#X obj 207 409 alpha;
#X msg 72 420 width 6;
#X obj 34 282 loadbang;
#X msg 34 320 width 1;
#X obj 424 244 inlet~;
#N canvas 630 140 650 468 tristimulus 0;
#X obj 44 24 inlet~;
#X obj 14 417 outlet~;
#X obj 90 417 outlet~;
#X obj 358 408 outlet~;
#X obj 44 62 route 0 1 2 3 4 5 6 7 8 9;
#X msg 14 210 \$1;
#X msg 43 210 \$2;
#X obj 14 371 osc~;
#X msg 90 184 \$1;
#X msg 118 184 \$2;
#X obj 90 336 osc~;
#X obj 150 209 +;
#X msg 150 184 \$1;
#X msg 178 184 \$2;
#X msg 210 184 \$1;
#X msg 238 184 \$2;
#X msg 270 184 \$1;
#X msg 298 184 \$2;
#X obj 120 226 +;
#X obj 90 243 +;
#X obj 178 245 +;
#X obj 148 262 +;
#X obj 118 279 +;
#X msg 398 177 \$1;
#X msg 426 177 \$2;
#X obj 358 296 osc~;
#X obj 458 202 +;
#X msg 458 177 \$1;
#X msg 486 177 \$2;
#X msg 518 177 \$1;
#X msg 546 177 \$2;
#X msg 578 177 \$1;
#X msg 606 177 \$2;
#X obj 428 219 +;
#X obj 398 236 +;
#X obj 486 238 +;
#X obj 456 255 +;
#X obj 426 272 +;
#X msg 338 177 \$1;
#X msg 366 177 \$2;
#X obj 406 292 +;
#X obj 358 256 +;
#X obj 29 352 line~;
#X obj 118 355 line~;
#X obj 406 368 line~;
#X obj 14 398 *~;
#X obj 90 398 *~;
#X obj 14 272 line~;
#X obj 14 253 pack f 100;
#X obj 44 43 sigmund~ -hop 2048 -npeak 10 peaks;
#X obj 358 389 *~;
#X obj 118 298 * 5;
#X obj 29 333 pack f 10;
#X obj 118 336 pack f 10;
#X obj 406 349 pack f 10;
#X obj 118 317 clip 0 1;
#X obj 406 330 clip 0 1;
#X obj 29 313 clip 0 1;
#X obj 14 229 * 1;
#X obj 358 277 * 0.5;
#X obj 90 263 * 0.25;
#X obj 29 294 * 10;
#X obj 406 311 * 20;
#X obj 119 377 *~;
#X obj 55 387 *~;
#X obj 416 398 *~;
#X connect 0 0 49 0;
#X connect 4 0 5 0;
#X connect 4 0 6 0;
#X connect 4 1 8 0;
#X connect 4 1 9 0;
#X connect 4 2 12 0;
#X connect 4 2 13 0;
#X connect 4 3 14 0;
#X connect 4 3 15 0;
#X connect 4 4 16 0;
#X connect 4 4 17 0;
#X connect 4 5 39 0;
#X connect 4 5 38 0;
#X connect 4 6 24 0;
#X connect 4 6 23 0;
#X connect 4 7 28 0;
#X connect 4 7 27 0;
#X connect 4 8 30 0;
#X connect 4 8 29 0;
#X connect 4 9 32 0;
#X connect 4 9 31 0;
#X connect 5 0 58 0;
#X connect 6 0 61 0;
#X connect 7 0 45 0;
#X connect 8 0 19 0;
#X connect 9 0 22 0;
#X connect 10 0 46 0;
#X connect 11 0 18 1;
#X connect 12 0 18 0;
#X connect 13 0 21 0;
#X connect 14 0 11 0;
#X connect 15 0 20 0;
#X connect 16 0 11 1;
#X connect 17 0 20 1;
#X connect 18 0 19 1;
#X connect 19 0 60 0;
#X connect 20 0 21 1;
#X connect 21 0 22 1;
#X connect 22 0 51 0;
#X connect 23 0 34 0;
#X connect 24 0 37 0;
#X connect 25 0 50 0;
#X connect 26 0 33 1;
#X connect 27 0 33 0;
#X connect 28 0 36 0;
#X connect 29 0 26 0;
#X connect 30 0 35 0;
#X connect 31 0 26 1;
#X connect 32 0 35 1;
#X connect 33 0 34 1;
#X connect 34 0 41 1;
#X connect 35 0 36 1;
#X connect 36 0 37 1;
#X connect 37 0 40 1;
#X connect 38 0 41 0;
#X connect 39 0 40 0;
#X connect 40 0 62 0;
#X connect 41 0 59 0;
#X connect 42 0 64 0;
#X connect 42 0 64 1;
#X connect 43 0 63 0;
#X connect 43 0 63 1;
#X connect 44 0 65 0;
#X connect 44 0 65 1;
#X connect 45 0 1 0;
#X connect 46 0 2 0;
#X connect 47 0 7 0;
#X connect 48 0 47 0;
#X connect 49 0 4 0;
#X connect 50 0 3 0;
#X connect 51 0 55 0;
#X connect 52 0 42 0;
#X connect 53 0 43 0;
#X connect 54 0 44 0;
#X connect 55 0 53 0;
#X connect 56 0 54 0;
#X connect 57 0 52 0;
#X connect 58 0 48 0;
#X connect 59 0 25 0;
#X connect 60 0 10 0;
#X connect 61 0 57 0;
#X connect 62 0 56 0;
#X connect 63 0 46 1;
#X connect 64 0 45 1;
#X connect 65 0 50 1;
#X restore 424 273 pd tristimulus;
#X obj 240 103 loadbang;
#X msg 192 105 1;
#X obj 241 141 f;
#X obj 266 141 + 1;
#X obj 241 160 % 360;
#X obj 266 262 color 0 0.1 0;
#X obj 207 390 color 0 0.1 0 0.2;
#X msg 282 300 draw line;
#X msg 34 301 length 100;
#X obj 239 122 metro 10;
#X connect 0 0 1 0;
#X connect 1 0 18 0;
#X connect 1 0 19 0;
#X connect 3 0 20 0;
#X connect 5 0 6 0;
#X connect 5 0 8 0;
#X connect 6 0 4 0;
#X connect 7 0 4 0;
#X connect 8 0 4 0;
#X connect 9 0 21 0;
#X connect 9 0 10 0;
#X connect 10 0 2 0;
#X connect 11 0 12 0;
#X connect 12 0 2 1;
#X connect 12 0 4 1;
#X connect 12 1 2 2;
#X connect 12 1 4 2;
#X connect 12 2 2 3;
#X connect 12 2 4 3;
#X connect 13 0 22 0;
#X connect 14 0 22 0;
#X connect 15 0 16 0;
#X connect 15 0 17 0;
#X connect 16 0 15 1;
#X connect 17 0 1 3;
#X connect 18 0 2 0;
#X connect 19 0 7 0;
#X connect 20 0 2 0;
#X connect 21 0 2 0;
#X connect 21 0 4 0;
#X connect 22 0 15 0;
#X restore 297 130 pd lisajous;
#X connect 0 0 3 0;
#X connect 1 0 2 0;
#X connect 2 0 1 0;
#X connect 3 0 6 0;
#X connect 4 0 12 0;
#X connect 5 0 2 0;
#X connect 7 0 6 1;
#X connect 8 0 9 0;
#X connect 9 0 14 0;
#X connect 10 0 13 0;
#X connect 11 0 14 1;
#X connect 12 0 3 1;
#X connect 13 0 9 1;
#X restore 6 182 pd GEM;
#X obj 22 135 r~ percL;
#X obj 77 135 r~ percR;
#X obj 22 154 *~ 5;
#X obj 77 154 *~ 5;
#N canvas 556 152 596 512 histogramas 0;
#X obj 26 52 gemhead;
#X obj 26 206 gemlist;
#X obj 26 168 until;
#X obj 26 149 t a b;
#X obj 94 168 tabread crossover;
#X obj 94 149 f;
#X obj 124 144 + 1;
#X msg 109 129 0;
#X obj 26 187 t b b;
#X msg 26 130 128;
#X obj 26 111 color 0 0 0;
#X obj 26 244 translateXYZ 0 0 0;
#X obj 26 263 translateXYZ 0 0 0;
#X obj 174 210 tabread crossover;
#X obj 174 229 * -1;
#X obj 26 92 rotateXYZ 0 0 -90;
#X obj 174 191 - 0;
#X obj 26 282 rotateXYZ 0 0 2.8;
#X obj 26 301 rectangle 1 0.03;
#X obj 94 197 + 0;
#X text 41 16 lineas;
#X obj 316 52 gemhead;
#X obj 316 206 gemlist;
#X obj 316 168 until;
#X obj 316 149 t a b;
#X obj 384 168 tabread crossover;
#X obj 384 149 f;
#X obj 414 144 + 1;
#X msg 399 129 0;
#X obj 316 187 t b b;
#X msg 316 130 128;
#X obj 316 111 color 0 0 0;
#X obj 464 210 tabread crossover;
#X obj 464 229 * -1;
#X obj 316 92 rotateXYZ 0 0 -90;
#X obj 464 191 - 0;
#X obj 316 244 rotateXYZ 0 0 2.8;
#X obj 384 197 + 0;
#X text 323 18 puntos;
#X obj 316 263 circle 0.01;
#X obj 316 225 translateXYZ 0 0.12 0;
#X obj 26 225 translateXYZ 0 0.12 0;
#X obj 26 71 translateXYZ 0 -2.4 0;
#X obj 316 71 translateXYZ 0 -2.4 0;
#X text 119 357 densidad;
#X obj 126 370 gemhead;
#X obj 293 354 r minute-interactions;
#X obj 294 429 line;
#X obj 129 411 translateXYZ 0 0 0;
#X obj 141 457 alpha;
#X obj 127 438 color 0 0 0 0.25;
#X obj 293 395 pack f 700;
#X obj 293 373 / 25;
#X obj 127 479 rectangle 1 0.08;
#X obj 126 389 translateXYZ -4.3 1.73 0;
#X connect 0 0 42 0;
#X connect 1 0 41 0;
#X connect 2 0 8 0;
#X connect 3 0 2 0;
#X connect 3 1 7 0;
#X connect 4 0 11 1;
#X connect 4 0 19 0;
#X connect 5 0 6 0;
#X connect 5 0 4 0;
#X connect 5 0 16 0;
#X connect 6 0 5 1;
#X connect 7 0 5 1;
#X connect 8 0 1 0;
#X connect 8 1 5 0;
#X connect 9 0 3 0;
#X connect 10 0 9 0;
#X connect 11 0 12 0;
#X connect 12 0 17 0;
#X connect 13 0 14 0;
#X connect 14 0 12 1;
#X connect 15 0 10 0;
#X connect 16 0 13 0;
#X connect 17 0 18 0;
#X connect 19 0 18 1;
#X connect 21 0 43 0;
#X connect 22 0 40 0;
#X connect 23 0 29 0;
#X connect 24 0 23 0;
#X connect 24 1 28 0;
#X connect 25 0 37 0;
#X connect 26 0 27 0;
#X connect 26 0 25 0;
#X connect 26 0 35 0;
#X connect 27 0 26 1;
#X connect 28 0 26 1;
#X connect 29 0 22 0;
#X connect 29 1 26 0;
#X connect 30 0 24 0;
#X connect 31 0 30 0;
#X connect 32 0 33 0;
#X connect 34 0 31 0;
#X connect 35 0 32 0;
#X connect 36 0 39 0;
#X connect 40 0 36 0;
#X connect 41 0 11 0;
#X connect 42 0 15 0;
#X connect 43 0 34 0;
#X connect 45 0 54 0;
#X connect 46 0 52 0;
#X connect 47 0 48 1;
#X connect 47 0 53 1;
#X connect 48 0 50 0;
#X connect 49 0 53 0;
#X connect 50 0 49 0;
#X connect 51 0 47 0;
#X connect 52 0 51 0;
#X connect 54 0 48 0;
#X restore 49 182 pd histogramas;
#N canvas 274 309 815 369 textos 0;
#X obj 75 113 text2d;
#X msg 155 94 font HelveticaStruggleRegular.ttf;
#X obj 75 75 loadbang;
#X obj 43 11 gemhead;
#X obj 215 15 r time24h;
#X msg 326 54 justify left base;
#X msg 214 54 text hora \$1 : \$2;
#X msg 179 130 10;
#X obj 177 113 loadbang;
#X obj 43 30 color 0 0 0;
#X obj 63 256 text2d;
#X msg 143 237 font HelveticaStruggleRegular.ttf;
#X obj 142 218 loadbang;
#X obj 31 154 gemhead;
#X msg 167 273 10;
#X obj 165 256 loadbang;
#X obj 31 173 color 0 0 0;
#X obj 31 192 translateXYZ 0 0 0;
#X msg 151 292 justify center base;
#X msg 160 196 text estaciones;
#X obj 160 177 loadbang;
#X obj 418 274 text2d;
#X msg 498 255 font HelveticaStruggleRegular.ttf;
#X obj 497 236 loadbang;
#X obj 386 172 gemhead;
#X msg 522 291 10;
#X obj 520 274 loadbang;
#X obj 386 191 color 0 0 0;
#X obj 545 195 loadbang;
#X msg 506 310 justify left base;
#X msg 545 214 text denisdad;
#X obj 43 49 translateXYZ -5.2 2 0;
#X obj 386 210 translateXYZ -5.2 1.7 0;
#X connect 1 0 0 0;
#X connect 2 0 1 0;
#X connect 3 0 9 0;
#X connect 4 0 6 0;
#X connect 5 0 0 0;
#X connect 6 0 0 0;
#X connect 7 0 0 1;
#X connect 8 0 7 0;
#X connect 8 0 5 0;
#X connect 9 0 31 0;
#X connect 11 0 10 0;
#X connect 12 0 11 0;
#X connect 13 0 16 0;
#X connect 14 0 10 1;
#X connect 15 0 14 0;
#X connect 15 0 18 0;
#X connect 16 0 17 0;
#X connect 17 0 10 0;
#X connect 18 0 10 0;
#X connect 19 0 10 0;
#X connect 20 0 19 0;
#X connect 22 0 21 0;
#X connect 23 0 22 0;
#X connect 24 0 27 0;
#X connect 25 0 21 1;
#X connect 26 0 25 0;
#X connect 26 0 29 0;
#X connect 27 0 32 0;
#X connect 28 0 30 0;
#X connect 29 0 21 0;
#X connect 30 0 21 0;
#X connect 31 0 0 0;
#X connect 32 0 21 0;
#X restore 49 201 pd textos;
#N canvas 0 22 546 437 automatización 0;
#X obj 226 187 s release;
#X obj 229 170 hsl 128 15 0 2000 0 1 empty empty empty -2 -8 0 10 -262144
-1 -1 4226 1;
#X obj 174 65 r minute-interactions;
#X obj 107 329 line;
#X obj 107 348 / 1000;
#X obj 364 170 hsl 128 15 0 100 0 1 empty empty empty -2 -8 0 10 -262144
-1 -1 0 1;
#X obj 361 187 s attack;
#X msg 107 310 1000 \$1;
#X obj 157 232 s resetspectrum;
#X obj 107 215 t f b;
#X obj 107 253 t f b;
#X obj 107 234 pipe 10;
#X obj 174 84 / 90;
#X msg 134 272 0 10;
#X obj 107 291 pipe 10;
#X obj 226 112 pow 4;
#X obj 174 151 pow 4;
#X obj 174 189 int;
#X obj 226 131 * 1e+06;
#X obj 192 367 s panorama-bangs;
#X obj 174 208 s spectral-shift;
#X obj 55 213 s speed;
#N canvas 0 22 450 300 crossfade 0;
#X obj 59 19 inlet;
#X obj 74 152 until;
#X msg 74 113 128;
#X obj 74 218 tabread salida;
#X obj 89 279 tabread llegada;
#X obj 74 237 *;
#X obj 74 173 f;
#X obj 99 173 + 1;
#X msg 124 150 0;
#X obj 75 133 t f b;
#X obj 89 298 *;
#X obj 62 38 hsl 128 15 0 1 0 0 empty empty empty -2 -8 0 10 -262144
-1 -1 12700 1;
#X obj 90 74 - 1;
#X obj 90 94 abs;
#X obj 74 336 +;
#X obj 74 375 tabwrite crossover;
#X msg 59 394 \; crossover normalize 1;
#X obj 179 356 int;
#X msg 122 74 \; crossover const 0;
#X obj 179 298 / 1;
#X obj 89 317 / 1;
#X obj 74 194 t f f f f f;
#X obj 179 337 +;
#X obj 74 257 / 1;
#X obj 59 55 t b b f f b;
#X obj 194 318 r spectral-shift;
#X connect 0 0 11 0;
#X connect 1 0 6 0;
#X connect 2 0 9 0;
#X connect 3 0 5 0;
#X connect 4 0 10 0;
#X connect 5 0 23 0;
#X connect 6 0 7 0;
#X connect 6 0 21 0;
#X connect 7 0 6 1;
#X connect 8 0 6 1;
#X connect 9 0 1 0;
#X connect 9 1 8 0;
#X connect 10 0 20 0;
#X connect 11 0 24 0;
#X connect 12 0 13 0;
#X connect 13 0 5 1;
#X connect 14 0 15 0;
#X connect 17 0 15 1;
#X connect 19 0 22 0;
#X connect 20 0 14 1;
#X connect 21 0 3 0;
#X connect 21 1 4 0;
#X connect 21 2 19 0;
#X connect 21 3 23 1;
#X connect 21 4 20 1;
#X connect 22 0 17 0;
#X connect 23 0 14 0;
#X connect 24 0 16 0;
#X connect 24 1 2 0;
#X connect 24 2 12 0;
#X connect 24 3 10 1;
#X connect 24 4 18 0;
#X connect 25 0 22 1;
#X restore 106 367 pd crossfade;
#X text 110 23 ---automatizations---;
#X obj 226 150 + 80;
#X obj 174 170 * 20000;
#X obj 107 177 pow 2;
#X obj 107 196 * 20000;
#X connect 1 0 0 0;
#X connect 2 0 12 0;
#X connect 3 0 4 0;
#X connect 4 0 22 0;
#X connect 5 0 6 0;
#X connect 7 0 3 0;
#X connect 7 0 19 0;
#X connect 9 0 11 0;
#X connect 9 1 8 0;
#X connect 10 0 14 0;
#X connect 10 1 13 0;
#X connect 11 0 10 0;
#X connect 12 0 15 0;
#X connect 12 0 16 0;
#X connect 12 0 26 0;
#X connect 13 0 3 0;
#X connect 13 0 19 0;
#X connect 14 0 7 0;
#X connect 15 0 18 0;
#X connect 16 0 25 0;
#X connect 17 0 20 0;
#X connect 18 0 24 0;
#X connect 24 0 1 0;
#X connect 25 0 17 0;
#X connect 26 0 27 0;
#X connect 27 0 9 0;
#X connect 27 0 21 0;
#X restore 246 63 pd automatización;
#X obj 6 21 bng 40 250 50 0 empty empty empty 17 7 0 10 -262144 -1
-1;
#X text 18 2 1;
#X text 167 4 2;
#X connect 9 0 8 0;
#X connect 10 0 12 0;
#X connect 11 0 12 1;
#X connect 14 0 16 0;
#X connect 15 0 17 0;
#X connect 16 0 13 1;
#X connect 17 0 13 2;
#X connect 21 0 13 0;
