#N canvas 804 28 476 276 10;
#N canvas 787 313 452 363 process_the_file 0;
#X obj 52 27 inlet bang;
#X obj 287 31 inlet speed;
#X obj 75 178 f;
#X obj 100 178 + 1;
#X obj 75 127 t f f;
#X obj 176 149 sel 1;
#X msg 165 190 0;
#X obj 74 108 tgl 15 0 empty empty empty 17 7 0 10 -262144 -1 -1 1
1;
#X msg 218 257 0;
#X obj 218 238 sel 1500;
#X obj 75 149 metro 100;
#X obj 129 123 hsl 128 15 0 300 0 1 empty empty empty -2 -8 0 10 -262144
-1 -1 4786 1;
#X obj 217 316 s off;
#X obj 217 277 bng 15 250 50 0 empty empty empty 17 7 0 10 -262144
-1 -1;
#X obj 75 199 + 290;
#X obj 74 75 bng 30 250 50 0 empty empty empty 17 7 0 10 -258113 -1
-1;
#X text 107 82 <- bang to start;
#X obj 176 168 t b b;
#X obj 217 294 t b b;
#X obj 77 334 outlet;
#X text 17 200 5 am ->;
#X obj 114 253 s time;
#X obj 75 221 t f f f;
#X msg 239 182 0;
#X connect 0 0 15 0;
#X connect 1 0 11 0;
#X connect 2 0 3 0;
#X connect 2 0 14 0;
#X connect 3 0 2 1;
#X connect 4 0 10 0;
#X connect 4 1 5 0;
#X connect 5 0 17 0;
#X connect 6 0 2 1;
#X connect 7 0 4 0;
#X connect 8 0 7 0;
#X connect 8 0 13 0;
#X connect 9 0 8 0;
#X connect 10 0 2 0;
#X connect 11 0 10 1;
#X connect 13 0 18 0;
#X connect 14 0 22 0;
#X connect 15 0 7 0;
#X connect 17 0 6 0;
#X connect 18 0 12 0;
#X connect 22 0 19 0;
#X connect 22 1 9 0;
#X connect 22 2 21 0;
#X connect 23 0 2 0;
#X restore 95 89 pd process_the_file;
#X obj 209 53 hsl 200 30 0 300 0 1 empty nor empty -2 -8 0 10 -262144
-1 -1 7500 1;
#X obj 95 55 bng 30 250 50 0 empty empty empty 17 7 0 10 -258113 -1
-1;
#X text 91 32 START;
#X text 212 35 SPEED;
#X obj 95 127 t a a;
#N canvas 830 397 281 212 split_and_pack 0;
#X obj 46 32 inlet all events at a given minute;
#X obj 46 127 list split 3;
#X obj 46 165 list;
#X obj 46 146 t b a;
#X obj 76 165 outlet;
#X obj 46 108 list split 30;
#X obj 121 51 r processing-power;
#X obj 121 70 + 1;
#X connect 0 0 5 0;
#X connect 1 0 3 0;
#X connect 1 1 2 1;
#X connect 2 0 1 0;
#X connect 3 0 2 0;
#X connect 3 1 4 0;
#X connect 5 0 1 0;
#X connect 5 2 1 0;
#X connect 6 0 7 0;
#X connect 7 0 5 1;
#X restore 122 146 pd split_and_pack;
#X text 13 36 GEM;
#N canvas 0 22 466 205 all 0;
#X obj 81 54 f;
#X obj 106 54 + 1;
#X obj 12 37 t a b;
#X obj 12 93 list prepend;
#X obj 12 17 inlet;
#N canvas 0 22 767 566 block4 0;
#X obj 212 108 route 96 97 98 99 100 101 102 103;
#X obj 219 175 route 104 105 106 107 108 109 110 111;
#X obj 219 235 route 112 113 114 115 116 117 118 119;
#X obj 219 285 route 120 121 122 123 124 125 126 127;
#X obj 152 34 inlet;
#X obj 251 25 r block-4;
#X obj 251 44 switch~;
#X obj 213 136 vox;
#X obj 237 136 vox;
#X obj 261 136 vox;
#X obj 309 136 vox;
#X obj 285 136 vox;
#X obj 333 136 vox;
#X obj 381 136 vox;
#X obj 357 136 vox;
#X obj 220 203 vox;
#X obj 244 203 vox;
#X obj 268 203 vox;
#X obj 316 203 vox;
#X obj 292 203 vox;
#X obj 340 203 vox;
#X obj 388 203 vox;
#X obj 364 203 vox;
#X obj 220 263 vox;
#X obj 244 263 vox;
#X obj 268 263 vox;
#X obj 316 263 vox;
#X obj 292 263 vox;
#X obj 340 263 vox;
#X obj 388 263 vox;
#X obj 364 263 vox;
#X obj 220 313 vox;
#X obj 244 313 vox;
#X obj 268 313 vox;
#X obj 316 313 vox;
#X obj 292 313 vox;
#X obj 340 313 vox;
#X obj 388 313 vox;
#X obj 364 313 vox;
#X connect 0 0 7 0;
#X connect 0 1 8 0;
#X connect 0 2 9 0;
#X connect 0 3 11 0;
#X connect 0 4 10 0;
#X connect 0 5 12 0;
#X connect 0 6 14 0;
#X connect 0 7 13 0;
#X connect 1 0 15 0;
#X connect 1 1 16 0;
#X connect 1 2 17 0;
#X connect 1 3 19 0;
#X connect 1 4 18 0;
#X connect 1 5 20 0;
#X connect 1 6 22 0;
#X connect 1 7 21 0;
#X connect 2 0 23 0;
#X connect 2 1 24 0;
#X connect 2 2 25 0;
#X connect 2 3 27 0;
#X connect 2 4 26 0;
#X connect 2 5 28 0;
#X connect 2 6 30 0;
#X connect 2 7 29 0;
#X connect 3 0 31 0;
#X connect 3 1 32 0;
#X connect 3 2 33 0;
#X connect 3 3 35 0;
#X connect 3 4 34 0;
#X connect 3 5 36 0;
#X connect 3 6 38 0;
#X connect 3 7 37 0;
#X connect 4 0 0 0;
#X connect 4 0 1 0;
#X connect 4 0 2 0;
#X connect 4 0 3 0;
#X connect 5 0 6 0;
#X restore 192 158 pd block4;
#N canvas 0 22 765 597 block3 0;
#X obj 176 112 route 64 65 66 67 68 69 70 71;
#X obj 179 173 route 72 73 74 75 76 77 78 79;
#X obj 179 233 route 80 81 82 83 84 85 86 87;
#X obj 183 285 route 88 89 90 91 92 93 94 95;
#X obj 149 65 inlet;
#X obj 251 25 r block-3;
#X obj 251 44 switch~;
#X obj 177 140 vox;
#X obj 201 140 vox;
#X obj 225 140 vox;
#X obj 273 140 vox;
#X obj 249 140 vox;
#X obj 297 140 vox;
#X obj 345 140 vox;
#X obj 321 140 vox;
#X obj 180 201 vox;
#X obj 204 201 vox;
#X obj 228 201 vox;
#X obj 276 201 vox;
#X obj 252 201 vox;
#X obj 300 201 vox;
#X obj 348 201 vox;
#X obj 324 201 vox;
#X obj 180 261 vox;
#X obj 204 261 vox;
#X obj 228 261 vox;
#X obj 276 261 vox;
#X obj 252 261 vox;
#X obj 300 261 vox;
#X obj 348 261 vox;
#X obj 324 261 vox;
#X obj 184 313 vox;
#X obj 208 313 vox;
#X obj 232 313 vox;
#X obj 280 313 vox;
#X obj 256 313 vox;
#X obj 304 313 vox;
#X obj 328 313 vox;
#X obj 352 313 vox;
#X connect 0 0 7 0;
#X connect 0 1 8 0;
#X connect 0 2 9 0;
#X connect 0 3 11 0;
#X connect 0 4 10 0;
#X connect 0 5 12 0;
#X connect 0 6 14 0;
#X connect 0 7 13 0;
#X connect 1 0 15 0;
#X connect 1 1 16 0;
#X connect 1 2 17 0;
#X connect 1 3 19 0;
#X connect 1 4 18 0;
#X connect 1 5 20 0;
#X connect 1 6 22 0;
#X connect 1 7 21 0;
#X connect 2 0 23 0;
#X connect 2 1 24 0;
#X connect 2 2 25 0;
#X connect 2 3 27 0;
#X connect 2 4 26 0;
#X connect 2 5 28 0;
#X connect 2 6 30 0;
#X connect 2 7 29 0;
#X connect 3 0 31 0;
#X connect 3 1 32 0;
#X connect 3 2 33 0;
#X connect 3 3 35 0;
#X connect 3 4 34 0;
#X connect 3 5 36 0;
#X connect 3 6 37 0;
#X connect 3 7 38 0;
#X connect 4 0 0 0;
#X connect 4 0 1 0;
#X connect 4 0 2 0;
#X connect 4 0 3 0;
#X connect 5 0 6 0;
#X connect 5 0 7 1;
#X connect 5 0 8 1;
#X connect 5 0 9 1;
#X connect 5 0 10 1;
#X connect 5 0 11 1;
#X connect 5 0 12 1;
#X connect 5 0 13 1;
#X connect 5 0 14 1;
#X connect 5 0 15 1;
#X connect 5 0 16 1;
#X connect 5 0 17 1;
#X connect 5 0 18 1;
#X connect 5 0 19 1;
#X connect 5 0 20 1;
#X connect 5 0 21 1;
#X connect 5 0 22 1;
#X connect 5 0 23 1;
#X connect 5 0 24 1;
#X connect 5 0 25 1;
#X connect 5 0 26 1;
#X connect 5 0 27 1;
#X connect 5 0 28 1;
#X connect 5 0 29 1;
#X connect 5 0 30 1;
#X connect 5 0 31 1;
#X connect 5 0 32 1;
#X connect 5 0 33 1;
#X connect 5 0 34 1;
#X connect 5 0 35 1;
#X connect 5 0 36 1;
#X connect 5 0 37 1;
#X connect 5 0 38 1;
#X restore 132 157 pd block3;
#N canvas 0 22 662 509 block2 0;
#X obj 271 158 route 32 33 34 35 36 37 38 39;
#X obj 271 210 route 40 41 42 43 44 45 46 47;
#X obj 269 266 route 48 49 50 51 52 53 54 55;
#X obj 269 316 route 56 57 58 59 60 61 62 63;
#X obj 118 68 inlet;
#X obj 342 58 r block-2;
#X obj 317 95 switch~;
#X obj 272 186 vox;
#X obj 296 186 vox;
#X obj 320 186 vox;
#X obj 368 186 vox;
#X obj 344 186 vox;
#X obj 392 186 vox;
#X obj 440 186 vox;
#X obj 416 186 vox;
#X obj 296 238 vox;
#X obj 272 238 vox;
#X obj 320 238 vox;
#X obj 368 238 vox;
#X obj 344 238 vox;
#X obj 392 238 vox;
#X obj 440 238 vox;
#X obj 416 238 vox;
#X obj 294 294 vox;
#X obj 270 294 vox;
#X obj 318 294 vox;
#X obj 366 294 vox;
#X obj 342 294 vox;
#X obj 390 294 vox;
#X obj 438 294 vox;
#X obj 414 294 vox;
#X obj 294 344 vox;
#X obj 270 344 vox;
#X obj 318 344 vox;
#X obj 366 344 vox;
#X obj 342 344 vox;
#X obj 390 344 vox;
#X obj 438 344 vox;
#X obj 414 344 vox;
#X connect 0 0 7 0;
#X connect 0 1 8 0;
#X connect 0 2 9 0;
#X connect 0 3 11 0;
#X connect 0 4 10 0;
#X connect 0 5 12 0;
#X connect 0 6 14 0;
#X connect 0 7 13 0;
#X connect 1 0 16 0;
#X connect 1 1 15 0;
#X connect 1 2 17 0;
#X connect 1 3 19 0;
#X connect 1 4 18 0;
#X connect 1 5 20 0;
#X connect 1 6 22 0;
#X connect 1 7 21 0;
#X connect 2 0 24 0;
#X connect 2 1 23 0;
#X connect 2 2 25 0;
#X connect 2 3 27 0;
#X connect 2 4 26 0;
#X connect 2 5 28 0;
#X connect 2 6 30 0;
#X connect 2 7 29 0;
#X connect 3 0 32 0;
#X connect 3 1 31 0;
#X connect 3 2 33 0;
#X connect 3 3 35 0;
#X connect 3 4 34 0;
#X connect 3 5 36 0;
#X connect 3 6 38 0;
#X connect 3 7 37 0;
#X connect 4 0 0 0;
#X connect 4 0 1 0;
#X connect 4 0 2 0;
#X connect 4 0 3 0;
#X connect 5 0 6 0;
#X connect 5 0 7 1;
#X connect 5 0 8 1;
#X connect 5 0 9 1;
#X connect 5 0 10 1;
#X connect 5 0 11 1;
#X connect 5 0 12 1;
#X connect 5 0 13 1;
#X connect 5 0 14 1;
#X connect 5 0 15 1;
#X connect 5 0 16 1;
#X connect 5 0 17 1;
#X connect 5 0 18 1;
#X connect 5 0 19 1;
#X connect 5 0 20 1;
#X connect 5 0 21 1;
#X connect 5 0 22 1;
#X connect 5 0 23 1;
#X connect 5 0 24 1;
#X connect 5 0 25 1;
#X connect 5 0 26 1;
#X connect 5 0 27 1;
#X connect 5 0 28 1;
#X connect 5 0 29 1;
#X connect 5 0 30 1;
#X connect 5 0 31 1;
#X connect 5 0 32 1;
#X connect 5 0 33 1;
#X connect 5 0 34 1;
#X connect 5 0 35 1;
#X connect 5 0 36 1;
#X connect 5 0 37 1;
#X connect 5 0 38 1;
#X restore 72 157 pd block2;
#N canvas 0 22 502 456 block1 0;
#X obj 72 142 route 0 1 2 3 4 5 6 7;
#X obj 72 202 route 8 9 10 11 12 13 14 15;
#X obj 66 262 route 16 17 18 19 20 21 22 23;
#X obj 71 318 route 24 25 26 27 28 29 30 31;
#X obj 71 119 inlet;
#X obj 337 75 r block-1;
#X obj 337 95 switch~;
#X obj 73 170 vox;
#X obj 97 170 vox;
#X obj 121 170 vox;
#X obj 169 170 vox;
#X obj 145 170 vox;
#X obj 193 170 vox;
#X obj 241 170 vox;
#X obj 217 170 vox;
#X obj 97 230 vox;
#X obj 73 230 vox;
#X obj 121 230 vox;
#X obj 169 230 vox;
#X obj 145 230 vox;
#X obj 193 230 vox;
#X obj 241 230 vox;
#X obj 217 230 vox;
#X obj 91 290 vox;
#X obj 67 290 vox;
#X obj 115 290 vox;
#X obj 163 290 vox;
#X obj 139 290 vox;
#X obj 187 290 vox;
#X obj 235 290 vox;
#X obj 211 290 vox;
#X obj 96 346 vox;
#X obj 72 346 vox;
#X obj 120 346 vox;
#X obj 168 346 vox;
#X obj 144 346 vox;
#X obj 192 346 vox;
#X obj 240 346 vox;
#X obj 216 346 vox;
#X connect 0 0 7 0;
#X connect 0 1 8 0;
#X connect 0 2 9 0;
#X connect 0 3 11 0;
#X connect 0 4 10 0;
#X connect 0 5 12 0;
#X connect 0 6 14 0;
#X connect 0 7 13 0;
#X connect 1 0 16 0;
#X connect 1 1 15 0;
#X connect 1 2 17 0;
#X connect 1 3 19 0;
#X connect 1 4 18 0;
#X connect 1 5 20 0;
#X connect 1 6 22 0;
#X connect 1 7 21 0;
#X connect 2 0 24 0;
#X connect 2 1 23 0;
#X connect 2 2 25 0;
#X connect 2 3 27 0;
#X connect 2 4 26 0;
#X connect 2 5 28 0;
#X connect 2 6 30 0;
#X connect 2 7 29 0;
#X connect 3 0 32 0;
#X connect 3 1 31 0;
#X connect 3 2 33 0;
#X connect 3 3 35 0;
#X connect 3 4 34 0;
#X connect 3 5 36 0;
#X connect 3 6 38 0;
#X connect 3 7 37 0;
#X connect 4 0 0 0;
#X connect 4 0 1 0;
#X connect 4 0 2 0;
#X connect 4 0 3 0;
#X connect 5 0 6 0;
#X connect 5 0 7 1;
#X connect 5 0 8 1;
#X connect 5 0 9 1;
#X connect 5 0 10 1;
#X connect 5 0 11 1;
#X connect 5 0 12 1;
#X connect 5 0 13 1;
#X connect 5 0 14 1;
#X connect 5 0 15 1;
#X connect 5 0 16 1;
#X connect 5 0 17 1;
#X connect 5 0 18 1;
#X connect 5 0 19 1;
#X connect 5 0 20 1;
#X connect 5 0 21 1;
#X connect 5 0 22 1;
#X connect 5 0 23 1;
#X connect 5 0 24 1;
#X connect 5 0 25 1;
#X connect 5 0 26 1;
#X connect 5 0 27 1;
#X connect 5 0 28 1;
#X connect 5 0 29 1;
#X connect 5 0 30 1;
#X connect 5 0 31 1;
#X connect 5 0 32 1;
#X connect 5 0 33 1;
#X connect 5 0 34 1;
#X connect 5 0 35 1;
#X connect 5 0 36 1;
#X connect 5 0 37 1;
#X connect 5 0 38 1;
#X restore 12 157 pd block1;
#X obj 81 74 % 128;
#X obj 297 137 tgl 15 1 block-1 empty empty 17 7 0 10 -262144 -1 -1
1 1;
#X obj 314 137 tgl 15 1 block-2 empty empty 17 7 0 10 -262144 -1 -1
0 1;
#X obj 331 137 tgl 15 1 block-3 empty empty 17 7 0 10 -262144 -1 -1
0 1;
#X obj 348 137 tgl 15 1 block-4 empty empty 17 7 0 10 -262144 -1 -1
0 1;
#X obj 297 57 r processing-power;
#X obj 297 96 >= 0;
#X obj 327 96 >= 32;
#X obj 367 96 >= 64;
#X obj 407 96 >= 96;
#X connect 0 0 1 0;
#X connect 0 0 9 0;
#X connect 1 0 0 1;
#X connect 2 0 3 0;
#X connect 2 1 0 0;
#X connect 3 0 5 0;
#X connect 3 0 6 0;
#X connect 3 0 7 0;
#X connect 3 0 8 0;
#X connect 4 0 2 0;
#X connect 9 0 3 1;
#X connect 14 0 15 0;
#X connect 14 0 16 0;
#X connect 14 0 17 0;
#X connect 14 0 18 0;
#X connect 14 0 9 1;
#X connect 15 0 10 0;
#X connect 16 0 11 0;
#X connect 17 0 12 0;
#X connect 18 0 13 0;
#X restore 122 166 pd all oscillators;
#N canvas 0 22 450 300 gemwin 0;
#X obj 132 136 gemwin;
#X obj 67 89 outlet;
#X obj 67 10 inlet;
#X obj 67 41 route create;
#X msg 67 70 set destroy;
#X msg 142 68 set create;
#X msg 198 112 destroy;
#X msg 132 112 create \, 1;
#X msg 273 121 dimen 800 800;
#X obj 273 100 loadbang;
#X connect 2 0 3 0;
#X connect 3 0 4 0;
#X connect 3 0 7 0;
#X connect 3 1 5 0;
#X connect 3 1 6 0;
#X connect 4 0 1 0;
#X connect 5 0 1 0;
#X connect 6 0 0 0;
#X connect 7 0 0 0;
#X connect 8 0 0 0;
#X connect 9 0 8 0;
#X restore 15 106 pd gemwin;
#X msg 15 87 destroy;
#X obj 15 55 bng 30 250 50 0 empty empty empty 17 7 0 10 -258113 -1
-1;
#N canvas 427 121 730 632 textos 1;
#X msg 159 316 font HelveticaStruggleRegular.ttf;
#X obj 159 296 loadbang;
#X obj 120 378 text2d;
#X obj 263 367 loadbang;
#X msg 365 468 font HelveticaStruggleRegular.ttf;
#X obj 365 448 loadbang;
#X obj 120 485 text2d;
#X obj 254 431 loadbang;
#X msg 254 468 justify left base;
#X msg 358 338 justify left base;
#X obj 24 281 / 60;
#X floatatom 24 319 5 0 0 0 - - -, f 5;
#X obj 24 300 int;
#X obj 69 299 % 60;
#X floatatom 69 318 5 0 0 0 - - -, f 5;
#X obj 24 335 pack f f;
#X msg 24 354 text \$1 : \$2;
#X msg 261 389 20;
#X msg 254 450 20;
#X obj 24 243 r time;
#X obj 24 262 t f f;
#X obj 66 226 loadbang;
#X msg 66 245 0;
#X obj 309 166 r frequency_scale;
#X obj 309 185 / 100;
#X obj 309 204 + 0.5;
#X obj 343 224 / 1.5;
#X obj 309 244 pack f f f;
#X obj 120 210 gemhead 200;
#X obj 120 466 translateXYZ 0 -0.4 0;
#X msg 225 338 text 2020 11 21;
#X obj 120 229 translateXYZ -3 3 0;
#X connect 0 0 2 0;
#X connect 1 0 0 0;
#X connect 3 0 17 0;
#X connect 3 0 30 0;
#X connect 3 0 9 0;
#X connect 4 0 6 0;
#X connect 5 0 4 0;
#X connect 7 0 18 0;
#X connect 7 0 8 0;
#X connect 8 0 6 0;
#X connect 9 0 2 0;
#X connect 10 0 12 0;
#X connect 11 0 15 0;
#X connect 12 0 11 0;
#X connect 13 0 14 0;
#X connect 14 0 15 1;
#X connect 15 0 16 0;
#X connect 16 0 6 0;
#X connect 17 0 2 1;
#X connect 18 0 6 1;
#X connect 19 0 20 0;
#X connect 20 0 10 0;
#X connect 20 1 13 0;
#X connect 21 0 22 0;
#X connect 22 0 20 0;
#X connect 23 0 24 0;
#X connect 24 0 25 0;
#X connect 25 0 26 0;
#X connect 25 0 27 0;
#X connect 26 0 27 1;
#X connect 26 0 27 2;
#X connect 28 0 31 0;
#X connect 29 0 6 0;
#X connect 30 0 2 0;
#X connect 31 0 2 0;
#X connect 31 0 29 0;
#X restore 95 204 pd textos;
#X text 20 16 1ยบ;
#X text 100 16 2ยบ;
#N canvas 0 22 450 300 startup 0;
#X obj 109 37 loadbang;
#X msg 109 57 \; frequency_scale 30;
#X msg 109 122 \; alpha 0;
#X msg 109 186 \; render 0;
#X msg 109 154 \; render 1;
#X msg 290 54 \; pd dsp 1;
#X connect 0 0 1 0;
#X connect 0 0 5 0;
#X restore 95 242 pd startup;
#X obj 228 109 nbx 3 20 0 128 0 1 processing-power nor empty 0 -8 0
14 -262144 -1 -1 31 256;
#X text 228 92 lines;
#X obj 294 109 hradio 20 1 1 6 scaletype r-scaletype empty 0 -8 0 10
-262144 -1 -1 4;
#X text 295 92 scale type;
#N canvas 803 384 452 364 automatization 0;
#X obj 22 51 list length;
#X obj 22 129 line;
#X msg 157 238 \; frequency_scale \$1;
#X obj 25 148 hsl 128 15 0 127 0 0 empty empty empty -2 -8 0 10 -262144
-1 -1 4961 1;
#X obj 22 32 inlet;
#X obj 22 290 pack f f f;
#X msg 22 309 \; color_scale \$1 \$2 \$3;
#X msg 22 222 1;
#X obj 51 241 -;
#X msg 51 222 1;
#X obj 22 203 t b b f;
#X obj 51 260 / 1.1;
#X obj 22 184 pow 2;
#X obj 22 70 pack f 1000;
#X floatatom 73 171 5 0 0 0 - - -, f 5;
#X obj 22 165 / 100;
#X obj 316 228 s r-scaletype;
#X obj 316 190 int;
#X obj 316 209 change;
#X text 286 101 auto scale selection;
#X obj 316 133 / 60;
#X text 138 107 spectral witdh;
#X floatatom 157 222 5 0 0 0 - - -, f 5;
#X obj 316 152 pow 0.8;
#X obj 316 171 * 5;
#X obj 157 146 / 150;
#X floatatom 379 201 5 0 0 0 - - -, f 5;
#X obj 157 165 pow 2;
#X obj 157 184 * 0.7;
#X obj 157 203 + 0.05;
#X connect 0 0 13 0;
#X connect 1 0 3 0;
#X connect 1 0 20 0;
#X connect 1 0 25 0;
#X connect 3 0 14 0;
#X connect 3 0 15 0;
#X connect 4 0 0 0;
#X connect 5 0 6 0;
#X connect 7 0 5 0;
#X connect 8 0 11 0;
#X connect 9 0 8 0;
#X connect 10 0 7 0;
#X connect 10 1 9 0;
#X connect 10 2 8 1;
#X connect 11 0 5 1;
#X connect 11 0 5 2;
#X connect 12 0 10 0;
#X connect 13 0 1 0;
#X connect 15 0 12 0;
#X connect 17 0 18 0;
#X connect 18 0 16 0;
#X connect 18 0 26 0;
#X connect 20 0 23 0;
#X connect 22 0 2 0;
#X connect 23 0 24 0;
#X connect 24 0 17 0;
#X connect 25 0 27 0;
#X connect 27 0 28 0;
#X connect 28 0 29 0;
#X connect 29 0 22 0;
#X restore 95 185 pd automatization;
#X obj 268 151 nbx 3 20 0 1000 0 1 time_scale nor empty 0 -8 0 14 -262144
-1 -1 7 256;
#X text 266 135 time;
#N canvas 0 22 449 364 amp 0;
#X obj 39 150 dac~, f 5;
#X obj 39 131 freeverb~;
#X msg 217 91 dry 1;
#X obj 217 72 loadbang;
#X msg 269 91 roomsize 0.99;
#X msg 356 91 wet 0.8;
#X obj 39 72 catch~ soundL;
#X obj 129 91 *~ 0.001;
#X obj 129 72 catch~ soundR;
#X obj 146 176 env~;
#X obj 146 195 - 100;
#X obj 39 91 *~ 0.1;
#X obj 56 176 env~;
#X obj 56 195 - 100;
#X obj 192 235 s ldb;
#X obj 244 245 s rdb;
#X connect 1 0 0 0;
#X connect 1 0 12 0;
#X connect 1 1 0 1;
#X connect 1 1 9 0;
#X connect 2 0 1 0;
#X connect 3 0 4 0;
#X connect 3 0 2 0;
#X connect 3 0 5 0;
#X connect 4 0 1 0;
#X connect 5 0 1 0;
#X connect 6 0 11 0;
#X connect 7 0 1 1;
#X connect 8 0 7 0;
#X connect 9 0 10 0;
#X connect 10 0 15 0;
#X connect 11 0 1 0;
#X connect 12 0 13 0;
#X connect 13 0 14 0;
#X restore 95 223 pd amp;
#X obj 95 108 coll 20201121.txt;
#C restore;
#X obj 17 130 vu 15 120 ldb empty -1 -8 0 10 -66577 -1 0 0;
#X obj 39 130 vu 15 120 rdb empty -1 -8 0 10 -66577 -1 1 0;
#X connect 0 0 24 0;
#X connect 1 0 0 1;
#X connect 2 0 0 0;
#X connect 5 0 20 0;
#X connect 5 1 6 0;
#X connect 6 0 8 0;
#X connect 9 0 10 0;
#X connect 10 0 9 0;
#X connect 11 0 10 0;
#X connect 24 0 5 0;
