#N canvas 721 383 512 287 10;
#X obj 19 88 gemhead;
#X msg 283 219 draw linestrip;
#X obj 19 236 curve 3, f 16;
#X obj 19 217 alpha;
#X obj 19 108 color 1 1 1 0.5;
#N canvas 0 22 840 449 instance2coords 0;
#X msg 49 135 3.14159;
#X obj 49 154 * 2;
#X obj 49 173 /;
#X obj 49 116 t b f;
#X floatatom 49 100 5 0 0 0 - - -, f 5;
#X obj 133 248 cos;
#X obj 160 248 sin;
#X obj 133 229 t f f;
#X obj 133 267 *;
#X obj 160 267 *;
#X floatatom 202 123 5 0 0 0 - - -, f 5;
#X text 200 109 radius;
#X obj 202 190 t b f b f;
#X text 15 102 total;
#X floatatom 133 136 5 0 0 0 - - -, f 5;
#X obj 133 190 *;
#X obj 133 171 t b f;
#X text 130 121 instance;
#X obj 169 295 pack f f 0;
#X msg 50 262 1.5708;
#X obj 133 209 - 1.5708;
#X obj 48 62 loadbang;
#X msg 49 81 90, f 6;
#X obj 133 152 + 0.5;
#X msg 217 160 2.88;
#X obj 267 123 loadbang;
#X obj 133 91 inlet instance;
#X obj 169 317 outlet;
#X connect 0 0 1 0;
#X connect 1 0 2 0;
#X connect 2 0 15 0;
#X connect 3 0 0 0;
#X connect 3 1 2 1;
#X connect 4 0 3 0;
#X connect 5 0 8 0;
#X connect 6 0 9 0;
#X connect 7 0 5 0;
#X connect 7 1 6 0;
#X connect 8 0 18 0;
#X connect 9 0 18 1;
#X connect 10 0 12 0;
#X connect 12 0 8 0;
#X connect 12 1 8 1;
#X connect 12 2 9 0;
#X connect 12 3 9 1;
#X connect 14 0 23 0;
#X connect 15 0 20 0;
#X connect 16 0 15 0;
#X connect 16 1 15 1;
#X connect 18 0 27 0;
#X connect 20 0 7 0;
#X connect 21 0 22 0;
#X connect 22 0 4 0;
#X connect 23 0 16 0;
#X connect 24 0 10 0;
#X connect 25 0 24 0;
#X connect 26 0 14 0;
#X restore 269 30 pd instance2coords;
#N canvas 0 22 840 449 instance2coords 0;
#X msg 49 135 3.14159;
#X obj 49 154 * 2;
#X obj 49 173 /;
#X obj 49 116 t b f;
#X floatatom 49 100 5 0 0 0 - - -, f 5;
#X obj 133 248 cos;
#X obj 160 248 sin;
#X obj 133 229 t f f;
#X obj 133 267 *;
#X obj 160 267 *;
#X floatatom 202 123 5 0 0 0 - - -, f 5;
#X text 200 109 radius;
#X obj 202 190 t b f b f;
#X text 15 102 total;
#X floatatom 133 136 5 0 0 0 - - -, f 5;
#X obj 133 190 *;
#X obj 133 171 t b f;
#X text 130 121 instance;
#X obj 169 295 pack f f 0;
#X msg 50 262 1.5708;
#X obj 133 209 - 1.5708;
#X obj 48 62 loadbang;
#X msg 49 81 90, f 6;
#X obj 133 152 + 0.5;
#X msg 217 160 2.88;
#X obj 267 123 loadbang;
#X obj 133 91 inlet instance;
#X obj 169 317 outlet;
#X connect 0 0 1 0;
#X connect 1 0 2 0;
#X connect 2 0 15 0;
#X connect 3 0 0 0;
#X connect 3 1 2 1;
#X connect 4 0 3 0;
#X connect 5 0 8 0;
#X connect 6 0 9 0;
#X connect 7 0 5 0;
#X connect 7 1 6 0;
#X connect 8 0 18 0;
#X connect 9 0 18 1;
#X connect 10 0 12 0;
#X connect 12 0 8 0;
#X connect 12 1 8 1;
#X connect 12 2 9 0;
#X connect 12 3 9 1;
#X connect 14 0 23 0;
#X connect 15 0 20 0;
#X connect 16 0 15 0;
#X connect 16 1 15 1;
#X connect 18 0 27 0;
#X connect 20 0 7 0;
#X connect 21 0 22 0;
#X connect 22 0 4 0;
#X connect 23 0 16 0;
#X connect 24 0 10 0;
#X connect 25 0 24 0;
#X connect 26 0 14 0;
#X restore 383 29 pd instance2coords;
#X obj 311 183 loadbang;
#X obj 148 11 inlet alpha;
#X obj 269 11 inlet start;
#X obj 383 10 inlet end;
#X msg 67 200 1;
#X msg 261 200 1;
#X obj 221 14 r alpha;
#X obj 57 71 r render;
#X msg 148 31 1 1 1 \$1;
#X obj 121 236 circle 0.03;
#X obj 121 217 alpha;
#X obj 121 172 color;
#X obj 121 192 translate 1 0 0 0;
#X msg 376 219 width 1.7;
#X obj 148 72 r color_scale;
#X obj 148 91 list append;
#X obj 456 71 inlet render;
#X connect 0 0 4 0;
#X connect 0 0 18 0;
#X connect 1 0 2 0;
#X connect 3 0 2 0;
#X connect 4 0 3 0;
#X connect 5 0 2 1;
#X connect 5 0 19 2;
#X connect 6 0 2 3;
#X connect 7 0 1 0;
#X connect 7 0 20 0;
#X connect 7 0 11 0;
#X connect 7 0 12 0;
#X connect 8 0 15 0;
#X connect 8 0 22 1;
#X connect 9 0 5 0;
#X connect 10 0 6 0;
#X connect 11 0 3 0;
#X connect 11 0 17 0;
#X connect 12 0 3 1;
#X connect 12 0 17 1;
#X connect 13 0 15 0;
#X connect 13 0 22 1;
#X connect 14 0 0 0;
#X connect 17 0 16 0;
#X connect 18 0 19 0;
#X connect 19 0 17 0;
#X connect 20 0 2 0;
#X connect 21 0 22 0;
#X connect 22 0 4 1;
#X connect 22 0 18 1;
#X connect 23 0 0 0;
