#N canvas 304 23 941 663 10;
#X obj 45 239 list split 3;
#X obj 45 108 f;
#X obj 70 108 + 1;
#X obj 45 57 t f f;
#X obj 146 79 sel 1;
#X msg 135 120 0;
#X obj 44 38 tgl 15 0 empty empty empty 17 7 0 10 -262144 -1 -1 1 1
;
#X obj 45 151 t f f;
#X msg 188 187 0;
#X obj 499 17 loadbang;
#X obj 45 277 list;
#X obj 45 258 t b a;
#X obj 95 275 list prepend;
#X obj 141 310 f;
#X obj 166 310 + 1;
#X obj 72 293 t a b;
#X obj 72 352 list prepend;
#X obj 290 134 catch~ sound;
#X obj 278 235 dac~, f 5;
#X obj 188 168 sel 1500;
#X obj 45 79 metro 100;
#X obj 16 303 print;
#X floatatom 1 180 5 0 0 0 - - -, f 5;
#X obj 72 372 route 0 1 2 3 4 5 6 7;
#X obj 72 432 route 8 9 10 11 12 13 14 15;
#X obj 66 492 route 16 17 18 19 20 21 22 23;
#X obj 71 548 route 24 25 26 27 28 29 30 31;
#X obj 99 53 hsl 128 15 0 300 0 1 empty empty empty -2 -8 0 10 -262144
-1 -1 7500 1;
#X obj 187 246 s off;
#X obj 187 207 bng 15 250 50 0 empty empty empty 17 7 0 10 -262144
-1 -1;
#X obj 271 388 route 32 33 34 35 36 37 38 39;
#X obj 271 440 route 40 41 42 43 44 45 46 47;
#X obj 45 129 + 290;
#X obj 269 496 route 48 49 50 51 52 53 54 55;
#X obj 269 546 route 56 57 58 59 60 61 62 63;
#X obj 73 400 vox;
#X obj 44 5 bng 30 250 50 0 empty empty empty 17 7 0 10 -258113 -1
-1;
#X text 77 12 <- bang to start;
#X msg 499 60 \; time_scale 1000;
#X obj 387 195 writesf~ 2;
#X msg 405 143 start;
#X msg 380 164 stop;
#X msg 440 120 open -bytes 4 rec.wav;
#X obj 413 100 t b b;
#X obj 146 98 t b b;
#X obj 187 224 t b b;
#X obj 82 200 list length;
#X msg 499 37 \; frequency_scale 30;
#X obj 302 289 line;
#X msg 302 327 \; frequency_scale \$1;
#X obj 302 270 pack f 10000;
#X obj 463 306 hsl 128 15 0 127 0 0 empty empty empty -2 -8 0 10 -262144
-1 -1 1530 1;
#X text 388 274 spectral witdh proportional to bike rides per minute
;
#X floatatom 460 323 5 0 0 0 - - -, f 5;
#X obj 272 416 vox;
#X obj 97 400 vox;
#X obj 121 400 vox;
#X obj 169 400 vox;
#X obj 145 400 vox;
#X obj 193 400 vox;
#X obj 241 400 vox;
#X obj 217 400 vox;
#X obj 97 460 vox;
#X obj 73 460 vox;
#X obj 121 460 vox;
#X obj 169 460 vox;
#X obj 145 460 vox;
#X obj 193 460 vox;
#X obj 241 460 vox;
#X obj 217 460 vox;
#X obj 91 520 vox;
#X obj 67 520 vox;
#X obj 115 520 vox;
#X obj 163 520 vox;
#X obj 139 520 vox;
#X obj 187 520 vox;
#X obj 235 520 vox;
#X obj 211 520 vox;
#X obj 96 576 vox;
#X obj 72 576 vox;
#X obj 120 576 vox;
#X obj 168 576 vox;
#X obj 144 576 vox;
#X obj 192 576 vox;
#X obj 240 576 vox;
#X obj 216 576 vox;
#X obj 296 416 vox;
#X obj 320 416 vox;
#X obj 368 416 vox;
#X obj 344 416 vox;
#X obj 392 416 vox;
#X obj 440 416 vox;
#X obj 416 416 vox;
#X obj 296 468 vox;
#X obj 272 468 vox;
#X obj 320 468 vox;
#X obj 368 468 vox;
#X obj 344 468 vox;
#X obj 392 468 vox;
#X obj 440 468 vox;
#X obj 416 468 vox;
#X obj 294 524 vox;
#X obj 270 524 vox;
#X obj 318 524 vox;
#X obj 366 524 vox;
#X obj 342 524 vox;
#X obj 390 524 vox;
#X obj 438 524 vox;
#X obj 414 524 vox;
#X obj 294 574 vox;
#X obj 270 574 vox;
#X obj 318 574 vox;
#X obj 366 574 vox;
#X obj 342 574 vox;
#X obj 390 574 vox;
#X obj 438 574 vox;
#X obj 414 574 vox;
#X obj 472 416 vox;
#X obj 496 416 vox;
#X obj 520 416 vox;
#X obj 568 416 vox;
#X obj 544 416 vox;
#X obj 592 416 vox;
#X obj 640 416 vox;
#X obj 616 416 vox;
#X obj 471 388 route 64 65 66 67 68 69 70 71;
#X obj 475 477 vox;
#X obj 499 477 vox;
#X obj 523 477 vox;
#X obj 571 477 vox;
#X obj 547 477 vox;
#X obj 595 477 vox;
#X obj 643 477 vox;
#X obj 619 477 vox;
#X obj 474 449 route 72 73 74 75 76 77 78 79;
#X obj 475 537 vox;
#X obj 499 537 vox;
#X obj 523 537 vox;
#X obj 571 537 vox;
#X obj 547 537 vox;
#X obj 595 537 vox;
#X obj 643 537 vox;
#X obj 619 537 vox;
#X obj 474 509 route 80 81 82 83 84 85 86 87;
#X obj 479 589 vox;
#X obj 503 589 vox;
#X obj 527 589 vox;
#X obj 575 589 vox;
#X obj 551 589 vox;
#X obj 599 589 vox;
#X obj 647 589 vox;
#X obj 623 589 vox;
#X obj 478 561 route 88 89 90 91 92 93 94 95;
#X obj 672 416 vox;
#X obj 696 416 vox;
#X obj 720 416 vox;
#X obj 768 416 vox;
#X obj 744 416 vox;
#X obj 792 416 vox;
#X obj 840 416 vox;
#X obj 816 416 vox;
#X obj 671 388 route 96 97 98 99 100 101 102 103;
#X obj 679 483 vox;
#X obj 703 483 vox;
#X obj 727 483 vox;
#X obj 775 483 vox;
#X obj 751 483 vox;
#X obj 799 483 vox;
#X obj 847 483 vox;
#X obj 823 483 vox;
#X obj 678 455 route 104 105 106 107 108 109 110 111;
#X obj 679 543 vox;
#X obj 703 543 vox;
#X obj 727 543 vox;
#X obj 775 543 vox;
#X obj 751 543 vox;
#X obj 799 543 vox;
#X obj 847 543 vox;
#X obj 823 543 vox;
#X obj 678 515 route 112 113 114 115 116 117 118 119;
#X obj 679 593 vox;
#X obj 703 593 vox;
#X obj 727 593 vox;
#X obj 775 593 vox;
#X obj 751 593 vox;
#X obj 799 593 vox;
#X obj 847 593 vox;
#X obj 823 593 vox;
#X obj 678 565 route 120 121 122 123 124 125 126 127;
#X obj 141 330 % 128;
#X obj 637 306 / 90;
#X obj 640 363 hsl 128 15 0 127 0 0 empty empty empty -2 -8 0 10 -262144
-1 -1 867 1;
#X floatatom 690 321 5 0 0 0 - - -, f 5;
#X obj 637 325 pow 2;
#X obj 637 344 * 300;
#X obj 290 154 *~ 0.004;
#X obj 267 209 freeverb~;
#X msg 373 234 dry 1;
#X msg 414 234 roomsize 0.9;
#X obj 45 170 coll 20201117.txt;
#C restore;
#X obj 504 188 loadbang;
#X connect 0 0 11 0;
#X connect 0 1 10 1;
#X connect 1 0 2 0;
#X connect 1 0 32 0;
#X connect 2 0 1 1;
#X connect 3 0 20 0;
#X connect 3 1 4 0;
#X connect 4 0 44 0;
#X connect 5 0 1 1;
#X connect 6 0 3 0;
#X connect 7 0 199 0;
#X connect 7 1 19 0;
#X connect 8 0 6 0;
#X connect 8 0 29 0;
#X connect 9 0 47 0;
#X connect 9 0 38 0;
#X connect 10 0 0 0;
#X connect 11 0 10 0;
#X connect 11 1 12 0;
#X connect 11 1 15 0;
#X connect 13 0 14 0;
#X connect 13 0 189 0;
#X connect 14 0 13 1;
#X connect 15 0 16 0;
#X connect 15 1 13 0;
#X connect 16 0 21 0;
#X connect 16 0 23 0;
#X connect 16 0 24 0;
#X connect 16 0 25 0;
#X connect 16 0 26 0;
#X connect 16 0 30 0;
#X connect 16 0 31 0;
#X connect 16 0 33 0;
#X connect 16 0 34 0;
#X connect 16 0 125 0;
#X connect 16 0 134 0;
#X connect 16 0 143 0;
#X connect 16 0 152 0;
#X connect 16 0 161 0;
#X connect 16 0 170 0;
#X connect 16 0 179 0;
#X connect 16 0 188 0;
#X connect 17 0 195 0;
#X connect 19 0 8 0;
#X connect 20 0 1 0;
#X connect 23 0 35 0;
#X connect 23 1 55 0;
#X connect 23 2 56 0;
#X connect 23 3 58 0;
#X connect 23 4 57 0;
#X connect 23 5 59 0;
#X connect 23 6 61 0;
#X connect 23 7 60 0;
#X connect 24 0 63 0;
#X connect 24 1 62 0;
#X connect 24 2 64 0;
#X connect 24 3 66 0;
#X connect 24 4 65 0;
#X connect 24 5 67 0;
#X connect 24 6 69 0;
#X connect 24 7 68 0;
#X connect 25 0 71 0;
#X connect 25 1 70 0;
#X connect 25 2 72 0;
#X connect 25 3 74 0;
#X connect 25 4 73 0;
#X connect 25 5 75 0;
#X connect 25 6 77 0;
#X connect 25 7 76 0;
#X connect 26 0 79 0;
#X connect 26 1 78 0;
#X connect 26 2 80 0;
#X connect 26 3 82 0;
#X connect 26 4 81 0;
#X connect 26 5 83 0;
#X connect 26 6 85 0;
#X connect 26 7 84 0;
#X connect 27 0 20 1;
#X connect 29 0 45 0;
#X connect 30 0 54 0;
#X connect 30 1 86 0;
#X connect 30 2 87 0;
#X connect 30 3 89 0;
#X connect 30 4 88 0;
#X connect 30 5 90 0;
#X connect 30 6 92 0;
#X connect 30 7 91 0;
#X connect 31 0 94 0;
#X connect 31 1 93 0;
#X connect 31 2 95 0;
#X connect 31 3 97 0;
#X connect 31 4 96 0;
#X connect 31 5 98 0;
#X connect 31 6 100 0;
#X connect 31 7 99 0;
#X connect 32 0 7 0;
#X connect 32 0 22 0;
#X connect 33 0 102 0;
#X connect 33 1 101 0;
#X connect 33 2 103 0;
#X connect 33 3 105 0;
#X connect 33 4 104 0;
#X connect 33 5 106 0;
#X connect 33 6 108 0;
#X connect 33 7 107 0;
#X connect 34 0 110 0;
#X connect 34 1 109 0;
#X connect 34 2 111 0;
#X connect 34 3 113 0;
#X connect 34 4 112 0;
#X connect 34 5 114 0;
#X connect 34 6 116 0;
#X connect 34 7 115 0;
#X connect 36 0 6 0;
#X connect 40 0 39 0;
#X connect 41 0 39 0;
#X connect 42 0 39 0;
#X connect 43 0 40 0;
#X connect 43 1 42 0;
#X connect 44 0 5 0;
#X connect 45 0 28 0;
#X connect 46 0 50 0;
#X connect 48 0 51 0;
#X connect 48 0 190 0;
#X connect 50 0 48 0;
#X connect 51 0 53 0;
#X connect 125 0 117 0;
#X connect 125 1 118 0;
#X connect 125 2 119 0;
#X connect 125 3 121 0;
#X connect 125 4 120 0;
#X connect 125 5 122 0;
#X connect 125 6 124 0;
#X connect 125 7 123 0;
#X connect 134 0 126 0;
#X connect 134 1 127 0;
#X connect 134 2 128 0;
#X connect 134 3 130 0;
#X connect 134 4 129 0;
#X connect 134 5 131 0;
#X connect 134 6 133 0;
#X connect 134 7 132 0;
#X connect 143 0 135 0;
#X connect 143 1 136 0;
#X connect 143 2 137 0;
#X connect 143 3 139 0;
#X connect 143 4 138 0;
#X connect 143 5 140 0;
#X connect 143 6 142 0;
#X connect 143 7 141 0;
#X connect 152 0 144 0;
#X connect 152 1 145 0;
#X connect 152 2 146 0;
#X connect 152 3 148 0;
#X connect 152 4 147 0;
#X connect 152 5 149 0;
#X connect 152 6 151 0;
#X connect 152 7 150 0;
#X connect 161 0 153 0;
#X connect 161 1 154 0;
#X connect 161 2 155 0;
#X connect 161 3 157 0;
#X connect 161 4 156 0;
#X connect 161 5 158 0;
#X connect 161 6 160 0;
#X connect 161 7 159 0;
#X connect 170 0 162 0;
#X connect 170 1 163 0;
#X connect 170 2 164 0;
#X connect 170 3 166 0;
#X connect 170 4 165 0;
#X connect 170 5 167 0;
#X connect 170 6 169 0;
#X connect 170 7 168 0;
#X connect 179 0 171 0;
#X connect 179 1 172 0;
#X connect 179 2 173 0;
#X connect 179 3 175 0;
#X connect 179 4 174 0;
#X connect 179 5 176 0;
#X connect 179 6 178 0;
#X connect 179 7 177 0;
#X connect 188 0 180 0;
#X connect 188 1 181 0;
#X connect 188 2 182 0;
#X connect 188 3 184 0;
#X connect 188 4 183 0;
#X connect 188 5 185 0;
#X connect 188 6 187 0;
#X connect 188 7 186 0;
#X connect 189 0 16 1;
#X connect 190 0 192 0;
#X connect 190 0 193 0;
#X connect 193 0 194 0;
#X connect 194 0 191 0;
#X connect 194 0 49 0;
#X connect 195 0 39 0;
#X connect 195 0 39 1;
#X connect 195 0 196 0;
#X connect 195 0 196 1;
#X connect 196 0 18 0;
#X connect 196 1 18 1;
#X connect 197 0 196 0;
#X connect 198 0 196 0;
#X connect 199 0 0 0;
#X connect 199 0 46 0;
#X connect 199 1 12 1;
#X connect 200 0 198 0;
#X connect 200 0 197 0;
