#N canvas 539 65 720 661 10;
#X obj 45 170 coll dia.txt;
#C restore;
#X obj 45 239 list split 3;
#X obj 45 108 f;
#X obj 70 108 + 1;
#X obj 45 57 t f f;
#X obj 146 79 sel 1;
#X msg 135 120 0;
#X obj 44 38 tgl 15 0 empty empty empty 17 7 0 10 -262144 -1 -1 0 1
;
#X obj 45 151 t f f;
#X msg 188 187 0;
#X obj 334 77 loadbang;
#X obj 45 277 list;
#X obj 45 258 t b a;
#X obj 95 275 list prepend;
#X obj 141 310 f;
#X obj 166 310 + 1;
#X obj 72 293 t a b;
#X obj 72 352 list prepend;
#X obj 290 224 catch~ sound;
#X obj 290 276 dac~, f 5;
#X obj 188 168 sel 1500;
#X obj 45 79 metro 100;
#X obj 16 303 print;
#X floatatom 1 180 5 0 0 0 - - -, f 5;
#X obj 72 372 route 0 1 2 3 4 5 6 7;
#X obj 72 432 route 8 9 10 11 12 13 14 15;
#X obj 66 492 route 16 17 18 19 20 21 22 23;
#X obj 71 548 route 24 25 26 27 28 29 30 31;
#X obj 129 53 hsl 128 15 0 127 0 1 empty empty empty -2 -8 0 10 -262144
-1 -1 12300 1;
#X obj 187 246 s off;
#X obj 187 207 bng 15 250 50 0 empty empty empty 17 7 0 10 -262144
-1 -1;
#X obj 271 388 route 32 33 34 35 36 37 38 39;
#X obj 271 440 route 40 41 42 43 44 45 46 47;
#X obj 45 129 + 290;
#X obj 269 496 route 48 49 50 51 52 53 54 55;
#X obj 141 330 % 64;
#X obj 269 546 route 56 57 58 59 60 61 62 63;
#X obj 73 400 vox;
#X obj 44 5 bng 30 250 50 0 empty empty empty 17 7 0 10 -258113 -1
-1;
#X text 77 12 <- bang to start;
#X msg 335 140 \; time_scale 1000;
#X obj 387 285 writesf~ 2;
#X msg 405 233 start;
#X msg 380 254 stop;
#X msg 440 210 open -bytes 4 rec.wav;
#X obj 413 190 t b b;
#X obj 146 98 t b b;
#X obj 187 224 t b b;
#X obj 82 200 list length;
#X msg 334 97 \; frequency_scale 30;
#X obj 302 329 line;
#X msg 302 348 \; frequency_scale \$1;
#X obj 302 310 pack f 10000;
#X obj 272 416 vox;
#X obj 97 400 vox;
#X obj 121 400 vox;
#X obj 169 400 vox;
#X obj 145 400 vox;
#X obj 193 400 vox;
#X obj 241 400 vox;
#X obj 217 400 vox;
#X obj 97 460 vox;
#X obj 73 460 vox;
#X obj 121 460 vox;
#X obj 169 460 vox;
#X obj 145 460 vox;
#X obj 193 460 vox;
#X obj 241 460 vox;
#X obj 217 460 vox;
#X obj 91 520 vox;
#X obj 67 520 vox;
#X obj 115 520 vox;
#X obj 163 520 vox;
#X obj 139 520 vox;
#X obj 187 520 vox;
#X obj 235 520 vox;
#X obj 211 520 vox;
#X obj 96 576 vox;
#X obj 72 576 vox;
#X obj 120 576 vox;
#X obj 168 576 vox;
#X obj 144 576 vox;
#X obj 192 576 vox;
#X obj 240 576 vox;
#X obj 216 576 vox;
#X obj 296 416 vox;
#X obj 320 416 vox;
#X obj 368 416 vox;
#X obj 344 416 vox;
#X obj 392 416 vox;
#X obj 440 416 vox;
#X obj 416 416 vox;
#X obj 296 468 vox;
#X obj 272 468 vox;
#X obj 320 468 vox;
#X obj 368 468 vox;
#X obj 344 468 vox;
#X obj 392 468 vox;
#X obj 440 468 vox;
#X obj 416 468 vox;
#X obj 294 524 vox;
#X obj 270 524 vox;
#X obj 318 524 vox;
#X obj 366 524 vox;
#X obj 342 524 vox;
#X obj 390 524 vox;
#X obj 438 524 vox;
#X obj 414 524 vox;
#X obj 294 574 vox;
#X obj 270 574 vox;
#X obj 318 574 vox;
#X obj 366 574 vox;
#X obj 342 574 vox;
#X obj 390 574 vox;
#X obj 438 574 vox;
#X obj 414 574 vox;
#X obj 463 346 hsl 128 15 0 127 0 0 empty empty empty -2 -8 0 10 -262144
-1 -1 4800 1;
#X text 388 314 spectral witdh proportional to bike rides per minute
;
#X floatatom 460 363 5 0 0 0 - - -, f 5;
#X obj 290 244 *~ 0.01;
#X connect 0 0 1 0;
#X connect 0 0 48 0;
#X connect 0 1 13 1;
#X connect 1 0 12 0;
#X connect 1 1 11 1;
#X connect 2 0 3 0;
#X connect 2 0 23 0;
#X connect 2 0 33 0;
#X connect 3 0 2 1;
#X connect 4 0 21 0;
#X connect 4 1 5 0;
#X connect 5 0 46 0;
#X connect 6 0 2 1;
#X connect 7 0 4 0;
#X connect 8 0 0 0;
#X connect 8 1 20 0;
#X connect 9 0 7 0;
#X connect 9 0 30 0;
#X connect 10 0 49 0;
#X connect 10 0 40 0;
#X connect 11 0 1 0;
#X connect 12 0 11 0;
#X connect 12 1 13 0;
#X connect 12 1 16 0;
#X connect 14 0 15 0;
#X connect 14 0 35 0;
#X connect 15 0 14 1;
#X connect 16 0 17 0;
#X connect 16 1 14 0;
#X connect 17 0 22 0;
#X connect 17 0 24 0;
#X connect 17 0 25 0;
#X connect 17 0 26 0;
#X connect 17 0 27 0;
#X connect 17 0 31 0;
#X connect 17 0 32 0;
#X connect 17 0 34 0;
#X connect 17 0 36 0;
#X connect 18 0 119 0;
#X connect 20 0 9 0;
#X connect 21 0 2 0;
#X connect 24 0 37 0;
#X connect 24 1 54 0;
#X connect 24 2 55 0;
#X connect 24 3 57 0;
#X connect 24 4 56 0;
#X connect 24 5 58 0;
#X connect 24 6 60 0;
#X connect 24 7 59 0;
#X connect 25 0 62 0;
#X connect 25 1 61 0;
#X connect 25 2 63 0;
#X connect 25 3 65 0;
#X connect 25 4 64 0;
#X connect 25 5 66 0;
#X connect 25 6 68 0;
#X connect 25 7 67 0;
#X connect 26 0 70 0;
#X connect 26 1 69 0;
#X connect 26 2 71 0;
#X connect 26 3 73 0;
#X connect 26 4 72 0;
#X connect 26 5 74 0;
#X connect 26 6 76 0;
#X connect 26 7 75 0;
#X connect 27 0 78 0;
#X connect 27 1 77 0;
#X connect 27 2 79 0;
#X connect 27 3 81 0;
#X connect 27 4 80 0;
#X connect 27 5 82 0;
#X connect 27 6 84 0;
#X connect 27 7 83 0;
#X connect 28 0 21 1;
#X connect 30 0 47 0;
#X connect 31 0 53 0;
#X connect 31 1 85 0;
#X connect 31 2 86 0;
#X connect 31 3 88 0;
#X connect 31 4 87 0;
#X connect 31 5 89 0;
#X connect 31 6 91 0;
#X connect 31 7 90 0;
#X connect 32 0 93 0;
#X connect 32 1 92 0;
#X connect 32 2 94 0;
#X connect 32 3 96 0;
#X connect 32 4 95 0;
#X connect 32 5 97 0;
#X connect 32 6 99 0;
#X connect 32 7 98 0;
#X connect 33 0 8 0;
#X connect 34 0 101 0;
#X connect 34 1 100 0;
#X connect 34 2 102 0;
#X connect 34 3 104 0;
#X connect 34 4 103 0;
#X connect 34 5 105 0;
#X connect 34 6 107 0;
#X connect 34 7 106 0;
#X connect 35 0 17 1;
#X connect 36 0 109 0;
#X connect 36 1 108 0;
#X connect 36 2 110 0;
#X connect 36 3 112 0;
#X connect 36 4 111 0;
#X connect 36 5 113 0;
#X connect 36 6 115 0;
#X connect 36 7 114 0;
#X connect 38 0 7 0;
#X connect 42 0 41 0;
#X connect 43 0 41 0;
#X connect 44 0 41 0;
#X connect 45 0 42 0;
#X connect 45 1 44 0;
#X connect 46 0 6 0;
#X connect 46 1 45 0;
#X connect 47 0 29 0;
#X connect 47 1 43 0;
#X connect 48 0 52 0;
#X connect 50 0 51 0;
#X connect 50 0 116 0;
#X connect 52 0 50 0;
#X connect 116 0 118 0;
#X connect 119 0 19 0;
#X connect 119 0 19 1;
#X connect 119 0 41 0;
#X connect 119 0 41 1;
