#N canvas 0 22 450 300 10;
#X obj 99 25 inlet midi;
#X obj 169 64 r scaletype;
#X obj 307 246 outlet;
#X obj 99 117 % 12;
#X obj 99 136 sel 0 1 2 3 4 5 6 7 8 9 10 11;
#X obj 99 98 t f f;
#X obj 322 115 / 12;
#X obj 322 134 int;
#X msg 104 178 0;
#X msg 132 178 2;
#X msg 161 177 4;
#X msg 190 178 5;
#X msg 221 179 7;
#X msg 250 179 9;
#X msg 280 179 11;
#X obj 307 223 +;
#X obj 322 153 * 12;
#X connect 0 0 5 0;
#X connect 3 0 4 0;
#X connect 4 0 8 0;
#X connect 4 1 8 0;
#X connect 4 2 9 0;
#X connect 4 3 9 0;
#X connect 4 4 10 0;
#X connect 4 5 11 0;
#X connect 4 6 11 0;
#X connect 4 7 12 0;
#X connect 4 8 12 0;
#X connect 4 9 13 0;
#X connect 4 10 13 0;
#X connect 4 11 14 0;
#X connect 5 0 3 0;
#X connect 5 1 6 0;
#X connect 6 0 7 0;
#X connect 7 0 16 0;
#X connect 8 0 15 0;
#X connect 9 0 15 0;
#X connect 10 0 15 0;
#X connect 11 0 15 0;
#X connect 12 0 15 0;
#X connect 13 0 15 0;
#X connect 14 0 15 0;
#X connect 15 0 2 0;
#X connect 16 0 15 1;
