#N canvas 0 22 450 300 10;
#X obj 99 25 inlet midi;
#X obj 166 24 r scaletype;
#X obj 307 246 outlet;
#N canvas 0 22 450 300 blancas 0;
#X obj 39 24 inlet;
#X obj 99 117 % 12;
#X obj 99 136 sel 0 1 2 3 4 5 6 7 8 9 10 11;
#X obj 99 98 t f f;
#X obj 322 115 / 12;
#X obj 322 134 int;
#X msg 104 178 0;
#X msg 132 178 2;
#X msg 161 177 4;
#X msg 190 178 5;
#X msg 221 179 7;
#X msg 250 179 9;
#X msg 280 179 11;
#X obj 307 223 +;
#X obj 322 153 * 12;
#X obj 274 250 outlet;
#X connect 0 0 3 0;
#X connect 1 0 2 0;
#X connect 2 0 6 0;
#X connect 2 1 6 0;
#X connect 2 2 7 0;
#X connect 2 3 7 0;
#X connect 2 4 8 0;
#X connect 2 5 9 0;
#X connect 2 6 9 0;
#X connect 2 7 10 0;
#X connect 2 8 10 0;
#X connect 2 9 11 0;
#X connect 2 10 11 0;
#X connect 2 11 12 0;
#X connect 3 0 1 0;
#X connect 3 1 4 0;
#X connect 4 0 5 0;
#X connect 5 0 14 0;
#X connect 6 0 13 0;
#X connect 7 0 13 0;
#X connect 8 0 13 0;
#X connect 9 0 13 0;
#X connect 10 0 13 0;
#X connect 11 0 13 0;
#X connect 12 0 13 0;
#X connect 13 0 15 0;
#X connect 14 0 13 1;
#X restore 133 97 pd blancas;
#X obj 133 78 spigot;
#X obj 43 78 spigot;
#X obj 76 59 == 0;
#N canvas 0 22 450 300 chromatics 0;
#X obj 39 24 inlet;
#X obj 274 250 outlet;
#X connect 0 0 1 0;
#X restore 43 97 pd chromatics;
#X obj 203 78 spigot;
#N canvas 0 22 450 300 blancas-melodic 0;
#X obj 39 24 inlet;
#X obj 99 117 % 12;
#X obj 99 136 sel 0 1 2 3 4 5 6 7 8 9 10 11;
#X obj 99 98 t f f;
#X obj 322 115 / 12;
#X obj 322 134 int;
#X msg 104 178 0;
#X msg 132 178 2;
#X msg 161 177 4;
#X msg 190 178 5;
#X msg 250 179 9;
#X obj 307 223 +;
#X obj 322 153 * 12;
#X obj 274 250 outlet;
#X msg 280 179 11;
#X msg 221 179 8;
#X connect 0 0 3 0;
#X connect 1 0 2 0;
#X connect 2 0 6 0;
#X connect 2 1 6 0;
#X connect 2 2 7 0;
#X connect 2 3 7 0;
#X connect 2 4 8 0;
#X connect 2 5 9 0;
#X connect 2 6 9 0;
#X connect 2 7 15 0;
#X connect 2 8 15 0;
#X connect 2 9 10 0;
#X connect 2 10 10 0;
#X connect 2 11 14 0;
#X connect 3 0 1 0;
#X connect 3 1 4 0;
#X connect 4 0 5 0;
#X connect 5 0 12 0;
#X connect 6 0 11 0;
#X connect 7 0 11 0;
#X connect 8 0 11 0;
#X connect 9 0 11 0;
#X connect 10 0 11 0;
#X connect 11 0 13 0;
#X connect 12 0 11 1;
#X connect 14 0 11 0;
#X connect 15 0 11 0;
#X restore 203 97 pd blancas-melodic;
#X obj 166 59 == 2;
#X obj 236 59 == 1;
#X connect 0 0 4 0;
#X connect 0 0 5 0;
#X connect 0 0 8 0;
#X connect 1 0 6 0;
#X connect 1 0 10 0;
#X connect 1 0 11 0;
#X connect 3 0 2 0;
#X connect 4 0 3 0;
#X connect 5 0 7 0;
#X connect 6 0 5 1;
#X connect 7 0 2 0;
#X connect 8 0 9 0;
#X connect 9 0 2 0;
#X connect 10 0 4 1;
#X connect 11 0 8 1;
