#N canvas 0 22 450 300 10;
#X obj 89 244 osc~;
#X obj 89 123 unpack f f f;
#X obj 74 159 *;
#X obj 123 152 *;
#X obj 172 130 r frequency_scale;
#X obj 89 224 line~;
#X obj 123 171 pack f f;
#X obj 137 199 list;
#X obj 216 63 t a b;
#X obj 265 212 line~;
#X obj 132 252 *~;
#X obj 167 264 throw~ sound;
#X obj 197 206 delay;
#X obj 197 171 t b f;
#X obj 234 187 *;
#X obj 289 112 r time_scale;
#X obj 74 178 t b f;
#X obj 216 44 inlet vox;
#X obj 333 232 r off;
#X msg 300 148 1 20;
#X obj 168 150 t f f;
#X msg 306 188 0 1000;
#X connect 0 0 10 0;
#X connect 1 0 2 0;
#X connect 1 1 3 0;
#X connect 1 2 20 0;
#X connect 2 0 16 0;
#X connect 3 0 6 0;
#X connect 4 0 3 1;
#X connect 4 0 2 1;
#X connect 5 0 0 0;
#X connect 6 0 7 1;
#X connect 7 0 5 0;
#X connect 8 0 1 0;
#X connect 8 1 19 0;
#X connect 9 0 10 1;
#X connect 10 0 11 0;
#X connect 12 0 21 0;
#X connect 13 0 12 0;
#X connect 13 1 14 0;
#X connect 14 0 12 1;
#X connect 15 0 14 1;
#X connect 16 0 7 0;
#X connect 16 1 5 0;
#X connect 17 0 8 0;
#X connect 18 0 21 0;
#X connect 19 0 9 0;
#X connect 20 0 6 1;
#X connect 20 1 13 0;
#X connect 21 0 9 0;
