#N canvas 810 390 470 329 10;
#X obj 47 236 osc~;
#X obj 47 93 unpack f f f;
#X obj 47 217 line~;
#X obj 83 176 pack f f;
#X obj 47 198 list;
#X obj 47 73 t a b;
#X obj 265 212 line~;
#X obj 47 255 *~;
#X obj 194 194 delay;
#X obj 194 159 t b f;
#X obj 231 175 *;
#X obj 246 156 r time_scale;
#X obj 47 174 t b f;
#X obj 47 54 inlet vox;
#X obj 329 168 r off;
#X obj 167 130 t f f;
#X msg 329 187 0 1000;
#X msg 265 90 1 1000;
#X text 374 272 gem line;
#X obj 329 234 line;
#X msg 374 206 1 1000;
#X msg 329 206 0 1000;
#X obj 167 159 * 1;
#X obj 395 51 inlet render;
#X obj 297 271 lin, f 11;
#X msg 114 20 1 80 100;
#X obj 47 130 scale_set;
#X obj 107 130 scale_set;
#X obj 47 294 throw~ soundL;
#X obj 137 294 throw~ soundR;
#X obj 47 274 *~;
#X obj 137 274 *~;
#X obj 101 211 / 90;
#X obj 167 206 / 90;
#X obj 170 248 line~;
#X obj 168 226 pack f 20;
#X obj 100 258 line~;
#X obj 98 236 pack f 20;
#X connect 0 0 7 0;
#X connect 1 0 24 1;
#X connect 1 0 26 0;
#X connect 1 0 32 0;
#X connect 1 1 24 2;
#X connect 1 1 27 0;
#X connect 1 1 33 0;
#X connect 1 2 15 0;
#X connect 2 0 0 0;
#X connect 3 0 4 1;
#X connect 4 0 2 0;
#X connect 5 0 1 0;
#X connect 5 1 17 0;
#X connect 6 0 7 1;
#X connect 7 0 30 0;
#X connect 7 0 31 0;
#X connect 8 0 16 0;
#X connect 9 0 8 0;
#X connect 9 1 10 0;
#X connect 10 0 8 1;
#X connect 11 0 10 1;
#X connect 11 0 22 1;
#X connect 12 0 4 0;
#X connect 12 1 2 0;
#X connect 13 0 5 0;
#X connect 14 0 16 0;
#X connect 15 0 22 0;
#X connect 15 1 9 0;
#X connect 16 0 6 0;
#X connect 16 0 21 0;
#X connect 17 0 6 0;
#X connect 17 0 20 0;
#X connect 19 0 24 0;
#X connect 20 0 19 0;
#X connect 21 0 19 0;
#X connect 22 0 3 1;
#X connect 23 0 24 3;
#X connect 25 0 5 0;
#X connect 26 0 12 0;
#X connect 27 0 3 0;
#X connect 30 0 28 0;
#X connect 31 0 29 0;
#X connect 32 0 37 0;
#X connect 33 0 35 0;
#X connect 34 0 31 1;
#X connect 35 0 34 0;
#X connect 36 0 30 1;
#X connect 37 0 36 0;
