#N canvas 810 390 450 300 10;
#X obj 74 236 osc~;
#X obj 74 93 unpack f f f;
#X obj 74 120 *;
#X obj 110 121 *;
#X obj 152 93 r frequency_scale;
#X obj 74 217 line~;
#X obj 110 181 pack f f;
#X obj 74 198 list;
#X obj 74 73 t a b;
#X obj 265 212 line~;
#X obj 74 255 *~;
#X obj 74 274 throw~ sound;
#X obj 197 206 delay;
#X obj 197 171 t b f;
#X obj 234 187 *;
#X obj 249 168 r time_scale;
#X obj 74 179 t b f;
#X obj 74 54 inlet vox;
#X obj 329 168 r off;
#X obj 168 150 t f f;
#X msg 329 187 0 1000;
#X msg 300 120 1 1000;
#X text 374 272 gem line;
#X obj 329 234 line;
#X obj 297 271 lin, f 11;
#X msg 374 206 1 1000;
#X msg 329 206 0 1000;
#X obj 74 160 mtof;
#X obj 110 160 mtof;
#X obj 37 140 scale_set;
#X obj 107 140 scale_set;
#X obj 171 214 *;
#X connect 0 0 10 0;
#X connect 1 0 24 1;
#X connect 1 0 2 0;
#X connect 1 1 24 2;
#X connect 1 1 3 0;
#X connect 1 2 19 0;
#X connect 2 0 29 0;
#X connect 3 0 30 0;
#X connect 4 0 3 1;
#X connect 4 0 2 1;
#X connect 5 0 0 0;
#X connect 6 0 7 1;
#X connect 7 0 5 0;
#X connect 8 0 1 0;
#X connect 8 1 21 0;
#X connect 9 0 10 1;
#X connect 10 0 11 0;
#X connect 12 0 20 0;
#X connect 13 0 12 0;
#X connect 13 1 14 0;
#X connect 14 0 12 1;
#X connect 15 0 14 1;
#X connect 15 0 31 1;
#X connect 16 0 7 0;
#X connect 16 1 5 0;
#X connect 17 0 8 0;
#X connect 18 0 20 0;
#X connect 19 0 31 0;
#X connect 19 1 13 0;
#X connect 20 0 9 0;
#X connect 20 0 26 0;
#X connect 21 0 9 0;
#X connect 21 0 25 0;
#X connect 23 0 24 0;
#X connect 25 0 23 0;
#X connect 26 0 23 0;
#X connect 27 0 16 0;
#X connect 28 0 6 0;
#X connect 29 0 27 0;
#X connect 30 0 28 0;
#X connect 31 0 6 1;
