#N canvas 741 111 769 840 16;
#X obj 82 199 unpackOSC;
#X obj 101 329 unpack f f;
#X floatatom 89 390 8 0 0 0 - - -;
#X floatatom 189 390 10 0 0 0 - - -;
#X obj 194 440 print lon;
#X obj 84 441 print lat;
#X obj 247 546 sendOSC;
#X obj 223 640 rest;
#X obj 101 146 udpreceive 57120;
#X obj 249 206 print;
#X obj 54 263 routeOSC /uv_radiation/today;
#X obj 246 300 routeOSC /uv_radiation/today;
#X obj 313 343 unpack f f;
#X floatatom 417 409 8 0 0 0 - - -;
#X floatatom 517 409 10 0 0 0 - - -;
#X obj 522 459 print lon;
#X obj 412 460 print lat;
#X obj 398 100 packOSC;
#X obj 92 40 import;
#X connect 0 0 10 0;
#X connect 1 0 2 0;
#X connect 1 1 3 0;
#X connect 2 0 5 0;
#X connect 3 0 4 0;
#X connect 8 0 0 0;
#X connect 8 1 9 0;
#X connect 10 0 1 0;
#X connect 12 0 13 0;
#X connect 12 1 14 0;
#X connect 13 0 16 0;
#X connect 14 0 15 0;
