#N canvas 601 343 681 319 10;
#X obj 69 6 inlet midi;
#X obj 136 24 r scaletype;
#X obj 307 246 outlet;
#N canvas 0 22 450 300 blancas 1;
#X obj 39 24 inlet;
#X obj 99 117 % 12;
#X obj 99 136 sel 0 1 2 3 4 5 6 7 8 9 10 11;
#X obj 99 98 t f f;
#X obj 322 115 / 12;
#X obj 322 134 int;
#X msg 104 178 0;
#X msg 132 178 2;
#X msg 161 177 4;
#X msg 190 178 5;
#X msg 221 179 7;
#X msg 250 179 9;
#X msg 280 179 11;
#X obj 307 223 +;
#X obj 322 153 * 12;
#X obj 274 250 outlet;
#X obj 87 66 int;
#X connect 0 0 16 0;
#X connect 1 0 2 0;
#X connect 2 0 6 0;
#X connect 2 1 6 0;
#X connect 2 2 7 0;
#X connect 2 3 7 0;
#X connect 2 4 8 0;
#X connect 2 5 9 0;
#X connect 2 6 9 0;
#X connect 2 7 10 0;
#X connect 2 8 10 0;
#X connect 2 9 11 0;
#X connect 2 10 11 0;
#X connect 2 11 12 0;
#X connect 3 0 1 0;
#X connect 3 1 4 0;
#X connect 4 0 5 0;
#X connect 5 0 14 0;
#X connect 6 0 13 0;
#X connect 7 0 13 0;
#X connect 8 0 13 0;
#X connect 9 0 13 0;
#X connect 10 0 13 0;
#X connect 11 0 13 0;
#X connect 12 0 13 0;
#X connect 13 0 15 0;
#X connect 14 0 13 1;
#X connect 16 0 3 0;
#X restore 710 156 pd blancas;
#X obj 710 137 spigot;
#X obj 69 138 spigot;
#N canvas 0 22 450 300 chromatics 0;
#X obj 39 24 inlet;
#X obj 274 250 outlet;
#X connect 0 0 1 0;
#X restore 69 157 pd chromatics;
#X obj 590 137 spigot;
#N canvas 0 22 450 300 blancas-melodic 0;
#X obj 39 24 inlet;
#X obj 99 117 % 12;
#X obj 99 136 sel 0 1 2 3 4 5 6 7 8 9 10 11;
#X obj 99 98 t f f;
#X obj 322 115 / 12;
#X obj 322 134 int;
#X msg 104 178 0;
#X msg 132 178 2;
#X msg 161 177 4;
#X msg 190 178 5;
#X msg 250 179 9;
#X obj 307 223 +;
#X obj 322 153 * 12;
#X obj 274 250 outlet;
#X msg 280 179 11;
#X msg 221 179 8;
#X obj 95 73 int;
#X obj 136 49 int;
#X connect 0 0 17 0;
#X connect 1 0 2 0;
#X connect 2 0 6 0;
#X connect 2 1 6 0;
#X connect 2 2 7 0;
#X connect 2 3 7 0;
#X connect 2 4 8 0;
#X connect 2 5 9 0;
#X connect 2 6 9 0;
#X connect 2 7 15 0;
#X connect 2 8 15 0;
#X connect 2 9 10 0;
#X connect 2 10 10 0;
#X connect 2 11 14 0;
#X connect 3 0 1 0;
#X connect 3 1 4 0;
#X connect 4 0 5 0;
#X connect 5 0 12 0;
#X connect 6 0 11 0;
#X connect 7 0 11 0;
#X connect 8 0 11 0;
#X connect 9 0 11 0;
#X connect 10 0 11 0;
#X connect 11 0 13 0;
#X connect 12 0 11 1;
#X connect 14 0 11 0;
#X connect 15 0 11 0;
#X connect 16 0 3 0;
#X connect 17 0 16 0;
#X restore 590 156 pd blancas-melodic;
#X obj 153 138 spigot;
#N canvas 0 22 450 300 chromatics1 0;
#X obj 39 24 inlet;
#X obj 344 250 outlet;
#X obj 79 117 % 12;
#X obj 79 136 sel 0 1 2 3 4 5 6 7 8 9 10 11;
#X obj 79 98 t f f;
#X obj 392 115 / 12;
#X obj 392 134 int;
#X msg 74 178 0;
#X msg 132 178 2;
#X msg 190 178 4;
#X msg 218 178 5;
#X msg 335 178 9;
#X obj 377 223 +;
#X obj 392 153 * 12;
#X msg 395 178 11;
#X msg 306 178 8;
#X msg 104 178 1;
#X msg 162 178 3;
#X msg 248 178 6;
#X msg 278 178 7;
#X msg 365 178 10;
#X obj 79 69 int;
#X connect 0 0 21 0;
#X connect 2 0 3 0;
#X connect 3 0 7 0;
#X connect 3 1 7 0;
#X connect 3 2 8 0;
#X connect 3 3 17 0;
#X connect 3 4 9 0;
#X connect 3 5 10 0;
#X connect 3 6 18 0;
#X connect 3 7 19 0;
#X connect 3 8 15 0;
#X connect 3 9 11 0;
#X connect 3 10 20 0;
#X connect 3 11 14 0;
#X connect 4 0 2 0;
#X connect 4 1 5 0;
#X connect 5 0 6 0;
#X connect 6 0 13 0;
#X connect 7 0 12 0;
#X connect 8 0 12 0;
#X connect 9 0 12 0;
#X connect 10 0 12 0;
#X connect 11 0 12 0;
#X connect 12 0 1 0;
#X connect 13 0 12 1;
#X connect 14 0 12 0;
#X connect 15 0 12 0;
#X connect 16 0 12 0;
#X connect 17 0 12 0;
#X connect 18 0 12 0;
#X connect 19 0 12 0;
#X connect 20 0 12 0;
#X connect 21 0 4 0;
#X restore 153 157 pd chromatics1;
#X obj 243 138 spigot;
#N canvas 0 22 450 300 chromatics2 0;
#X obj 39 24 inlet;
#X obj 344 250 outlet;
#X obj 79 117 % 12;
#X obj 79 136 sel 0 1 2 3 4 5 6 7 8 9 10 11;
#X obj 79 98 t f f;
#X obj 392 115 / 12;
#X obj 392 134 int;
#X msg 74 178 0;
#X msg 132 178 2;
#X msg 190 178 4;
#X msg 218 178 5;
#X msg 335 178 9;
#X obj 344 231 +;
#X obj 392 153 * 12;
#X msg 395 178 11;
#X msg 306 178 8;
#X msg 104 178 1;
#X msg 162 178 3;
#X msg 248 178 6;
#X msg 278 178 7;
#X msg 365 178 10;
#X obj 129 67 int;
#X connect 0 0 21 0;
#X connect 2 0 3 0;
#X connect 3 0 7 0;
#X connect 3 1 7 0;
#X connect 3 2 8 0;
#X connect 3 3 17 0;
#X connect 3 4 9 0;
#X connect 3 5 10 0;
#X connect 3 6 10 0;
#X connect 3 7 19 0;
#X connect 3 8 15 0;
#X connect 3 9 11 0;
#X connect 3 10 20 0;
#X connect 3 11 14 0;
#X connect 4 0 2 0;
#X connect 4 1 5 0;
#X connect 5 0 6 0;
#X connect 6 0 13 0;
#X connect 7 0 12 0;
#X connect 8 0 12 0;
#X connect 9 0 12 0;
#X connect 10 0 12 0;
#X connect 11 0 12 0;
#X connect 12 0 1 0;
#X connect 13 0 12 1;
#X connect 14 0 12 0;
#X connect 15 0 12 0;
#X connect 16 0 12 0;
#X connect 17 0 12 0;
#X connect 18 0 12 0;
#X connect 19 0 12 0;
#X connect 20 0 12 0;
#X connect 21 0 4 0;
#X restore 243 157 pd chromatics2;
#X obj 95 47 r frequency_scale;
#X obj 102 119 == 0;
#X obj 186 119 == 1;
#X obj 276 119 == 2;
#X obj 69 25 + 20;
#X obj 69 62 *;
#X obj 69 81 ftom;
#X obj 307 223 mtof;
#X obj 463 138 spigot;
#N canvas 0 22 450 300 blancas-melodic-1 0;
#X obj 39 24 inlet;
#X obj 99 117 % 12;
#X obj 99 136 sel 0 1 2 3 4 5 6 7 8 9 10 11;
#X obj 99 98 t f f;
#X obj 322 115 / 12;
#X obj 322 134 int;
#X msg 104 178 0;
#X msg 132 178 2;
#X msg 161 177 4;
#X msg 190 178 5;
#X msg 250 179 9;
#X obj 307 223 +;
#X obj 322 153 * 12;
#X obj 274 250 outlet;
#X msg 307 179 11;
#X msg 221 179 8;
#X msg 280 179 10;
#X obj 106 60 int;
#X connect 0 0 17 0;
#X connect 1 0 2 0;
#X connect 2 0 6 0;
#X connect 2 1 6 0;
#X connect 2 2 7 0;
#X connect 2 3 7 0;
#X connect 2 4 8 0;
#X connect 2 5 9 0;
#X connect 2 6 9 0;
#X connect 2 7 15 0;
#X connect 2 8 15 0;
#X connect 2 9 10 0;
#X connect 2 10 16 0;
#X connect 2 11 14 0;
#X connect 3 0 1 0;
#X connect 3 1 4 0;
#X connect 4 0 5 0;
#X connect 5 0 12 0;
#X connect 6 0 11 0;
#X connect 7 0 11 0;
#X connect 8 0 11 0;
#X connect 9 0 11 0;
#X connect 10 0 11 0;
#X connect 11 0 13 0;
#X connect 12 0 11 1;
#X connect 14 0 11 0;
#X connect 15 0 11 0;
#X connect 16 0 11 0;
#X connect 17 0 3 0;
#X restore 463 157 pd blancas-melodic-1;
#X obj 333 138 spigot;
#X obj 366 119 == 3;
#X obj 496 119 == 4;
#X obj 623 118 == 5;
#X obj 743 118 == 6;
#N canvas 0 22 450 300 blancas-melodic-2 0;
#X obj 39 24 inlet;
#X obj 99 117 % 12;
#X obj 99 136 sel 0 1 2 3 4 5 6 7 8 9 10 11;
#X obj 99 98 t f f;
#X obj 322 115 / 12;
#X obj 322 134 int;
#X msg 84 180 0;
#X msg 112 180 2;
#X msg 141 179 4;
#X msg 170 180 5;
#X msg 250 179 9;
#X obj 307 223 +;
#X obj 322 153 * 12;
#X obj 274 250 outlet;
#X msg 307 179 11;
#X msg 221 179 8;
#X msg 280 179 10;
#X msg 197 179 7;
#X obj 109 58 int;
#X connect 0 0 18 0;
#X connect 1 0 2 0;
#X connect 2 0 6 0;
#X connect 2 1 6 0;
#X connect 2 2 7 0;
#X connect 2 3 7 0;
#X connect 2 4 8 0;
#X connect 2 5 9 0;
#X connect 2 6 9 0;
#X connect 2 7 17 0;
#X connect 2 8 15 0;
#X connect 2 9 10 0;
#X connect 2 10 16 0;
#X connect 2 11 14 0;
#X connect 3 0 1 0;
#X connect 3 1 4 0;
#X connect 4 0 5 0;
#X connect 5 0 12 0;
#X connect 6 0 11 0;
#X connect 7 0 11 0;
#X connect 8 0 11 0;
#X connect 9 0 11 0;
#X connect 10 0 11 0;
#X connect 11 0 13 0;
#X connect 12 0 11 1;
#X connect 14 0 11 0;
#X connect 15 0 11 0;
#X connect 16 0 11 0;
#X connect 18 0 3 0;
#X restore 333 157 pd blancas-melodic-2;
#X obj 69 43 *;
#X connect 0 0 17 0;
#X connect 1 0 14 0;
#X connect 1 0 15 0;
#X connect 1 0 16 0;
#X connect 1 0 24 0;
#X connect 1 0 25 0;
#X connect 1 0 26 0;
#X connect 1 0 27 0;
#X connect 3 0 20 0;
#X connect 4 0 3 0;
#X connect 5 0 6 0;
#X connect 6 0 20 0;
#X connect 7 0 8 0;
#X connect 8 0 20 0;
#X connect 9 0 10 0;
#X connect 10 0 20 0;
#X connect 11 0 12 0;
#X connect 12 0 20 0;
#X connect 13 0 18 1;
#X connect 14 0 5 1;
#X connect 15 0 9 1;
#X connect 16 0 11 1;
#X connect 17 0 29 0;
#X connect 17 0 29 1;
#X connect 18 0 19 0;
#X connect 19 0 5 0;
#X connect 19 0 9 0;
#X connect 19 0 11 0;
#X connect 19 0 7 0;
#X connect 19 0 4 0;
#X connect 19 0 21 0;
#X connect 19 0 23 0;
#X connect 20 0 2 0;
#X connect 21 0 22 0;
#X connect 22 0 20 0;
#X connect 23 0 28 0;
#X connect 24 0 23 1;
#X connect 25 0 21 1;
#X connect 26 0 7 1;
#X connect 27 0 4 1;
#X connect 28 0 20 0;
#X connect 29 0 18 0;
